/* XPM */
static char *result[] = {
/* columns rows colors chars-per-pixel */
"64 64 214 2 ",
"   c #844413",
".  c #834314",
"X  c #844314",
"o  c #844414",
"O  c #854414",
"+  c #844514",
"@  c #854514",
"#  c #844415",
"$  c #854415",
"%  c #844515",
"&  c #854515",
"*  c #864515",
"=  c #854615",
"-  c #864614",
";  c #864615",
":  c #874716",
">  c #8B4B19",
",  c #8B4A1A",
"<  c #8D4A19",
"1  c #8E4C1A",
"2  c #8E4D1A",
"3  c #8F4D1A",
"4  c #8F4D1B",
"5  c #8F4E1A",
"6  c #904D1B",
"7  c #904E1A",
"8  c #904E1B",
"9  c #914E1B",
"0  c #914F1B",
"q  c #95531E",
"w  c #96531E",
"e  c #97531F",
"r  c #95541E",
"t  c #97541F",
"y  c #98541E",
"u  c #98541F",
"i  c #99551F",
"p  c #965420",
"a  c #975520",
"s  c #965625",
"d  c #955526",
"f  c #965726",
"g  c #975726",
"h  c #985520",
"j  c #995520",
"k  c #995521",
"l  c #9A5520",
"z  c #985620",
"x  c #995620",
"c  c #9A5620",
"v  c #9A5720",
"b  c #9A5621",
"n  c #9A5721",
"m  c #9B5721",
"M  c #9B5822",
"N  c #9C5821",
"B  c #9C5921",
"V  c #9D5822",
"C  c #9C5922",
"Z  c #9D5922",
"A  c #9C5923",
"S  c #9D5923",
"D  c #9E5923",
"F  c #9D5A22",
"G  c #9E5B22",
"H  c #9E5A23",
"J  c #9E5B23",
"K  c #9A5825",
"L  c #9C5824",
"P  c #9F5B24",
"I  c #9F5B25",
"U  c #9B5B29",
"Y  c #9A5B2A",
"T  c #9B5B2A",
"R  c #9B5A2B",
"E  c #9D5D2C",
"W  c #9E5E2D",
"Q  c #9F5F2D",
"!  c #9F5E2E",
"~  c #9F5F2E",
"^  c #A05C25",
"/  c #A05D25",
"(  c #A05C26",
")  c #A15C26",
"_  c #A05D26",
"`  c #A15D26",
"'  c #A05D27",
"]  c #A15D27",
"[  c #A15E27",
"{  c #A15E28",
"}  c #A25E28",
"|  c #A25F2A",
" . c #A3602A",
".. c #A4602A",
"X. c #A4612A",
"o. c #A5612A",
"O. c #A4612B",
"+. c #A5612B",
"@. c #A6612B",
"#. c #A5622B",
"$. c #A5612C",
"%. c #A5622C",
"&. c #A5622D",
"*. c #A6622C",
"=. c #A6632C",
"-. c #A8642F",
";. c #A8652F",
":. c #A26030",
">. c #A26130",
",. c #A36131",
"<. c #A36231",
"1. c #A56432",
"2. c #A46433",
"3. c #A86530",
"4. c #A96530",
"5. c #A96630",
"6. c #AB6731",
"7. c #A96A37",
"8. c #AC6A34",
"9. c #AD6A34",
"0. c #AD6B34",
"q. c #AE6B35",
"w. c #AD6A36",
"e. c #AF6B37",
"r. c #A86838",
"t. c #A96938",
"y. c #AA6939",
"u. c #AB6A39",
"i. c #AB6B39",
"p. c #AA693A",
"a. c #AB6B3A",
"s. c #AC6A39",
"d. c #AC6C3A",
"f. c #AD6C3A",
"g. c #AD6C3C",
"h. c #AF6F3C",
"j. c #AF6F3E",
"k. c #B1703E",
"l. c #B2713F",
"z. c #B3723F",
"x. c #B6743F",
"c. c #B17140",
"v. c #B27140",
"b. c #B27141",
"n. c #B27240",
"m. c #B37240",
"M. c #B27340",
"N. c #B37241",
"B. c #B37341",
"V. c #B37342",
"C. c #B47341",
"Z. c #B47342",
"A. c #B47343",
"S. c #B47441",
"D. c #B67440",
"F. c #B77440",
"G. c #B77540",
"H. c #B77441",
"J. c #B47442",
"K. c #B57443",
"L. c #B47543",
"P. c #B67644",
"I. c #B77644",
"U. c #B77744",
"Y. c #B77745",
"T. c #B87642",
"R. c #B97743",
"E. c #B87744",
"W. c #BA7744",
"Q. c #B87746",
"!. c #B97746",
"~. c #BB7844",
"^. c #BA7845",
"/. c #BB7A45",
"(. c #B97846",
"). c #B87847",
"_. c #B97847",
"`. c #B97947",
"'. c #BC7946",
"]. c #BC7B46",
"[. c #BA7948",
"{. c #BC7B48",
"}. c #BC7B4A",
"|. c #BF7D49",
" X c #C68553",
".X c #C78554",
"XX c #C88655",
"oX c #C98755",
"OX c #CA8755",
"+X c #C98954",
"@X c #C98855",
"#X c #C98955",
"$X c #CA8855",
"%X c #C98856",
"&X c #C98956",
"*X c #C98957",
"=X c #CA8856",
"-X c #CA8956",
";X c #CA8957",
":X c #CB8957",
">X c #CA8A58",
",X c #CB8A58",
"<X c #CC8A58",
"1X c #CD8C59",
"2X c #CD8C5A",
"3X c #CD8D5A",
"4X c #CD8C5B",
"5X c #CD8D5B",
"6X c #CE8C5A",
"7X c #CE8D5A",
"8X c #CE8C5B",
"9X c #CE8D5B",
"0X c #CE8E5B",
"qX c #CF8D5C",
/* pixels */
"o o o o o o o , :X9X9X9X9X9X9X9Xe.H H H H H H H H H H H H H H H H H H i # o o o o o o o o o o o }.9X9X9X9X9X9X9X|.J H H H H H H ",
"o o o o o o , :X9X9X9X9X9X9X9X9X9Xq.H H H H H H H H H H H H H H H H x o o o o o o o o o o o o ).9X9X9X9X9X9X9X9X9X|.J H H H H H ",
"o o o o o > =X9X9X9X9X9X9X9X9X9X9X9Xw.H H H H H H H H H H H H H H c @ o o o o o o o o o o o d.9X9X9X9X9X9X9X9X9X9X9X|.J H H H H ",
"o o o o < J ..2X9X9X9X9X9X9X9X9X9X9X9X0.H H H H H H H H H H H H k O o o o o o o o o o o o 1 ) &X9X9X9X9X9X9X9X9X9X9X9X|.J H H H ",
"o o o < J H H ..2X9X9X9X9X9X9X9X9X9X9X2X8.H H H H H H H H H H c @ o o o o o o o o o o o 1 H H ( =X9X9X9X9X9X9X9X9X9X9X9X|.J H H ",
"o o < J H H H H ..2X9X9X9X9X9X9X9X9X9X9X7X9.H H H H H H H H x & o o o o o o o o o o o 1 H H H H ( %X9X9X9X9X9X9X9X9X9X9X9X|.J H ",
"o < J H H H H H H ..2X9X9X9X9X9X9X9X9X9X9X3X9.H H H H H H x $ o o o o o o o o o o o 1 H H H H H H _ ;X9X9X9X9X9X9X9X9X9X9X9X|.J ",
"< J H H H H H H H H ..2X9X9X9X9X9X9X9X9X9X9X2X9.H H H H x * o o o o o o o o o o o 1 H H H H H H H H _ :X9X9X9X9X9X9X9X9X9X9X9X|.",
"J H H H H H H H H H H  .9X9X9X9X9X9X9X9X9X9X9X6X9.H H x - o o o o o o o o o o o 1 H H H H H H H H H H ` +X9X9X9X9X9X9X9X9X9X9X9X",
"H H H H H H H H H H H 8 :.9X9X9X9X9X9X9X9X9X9X9X1X9.x * o o o o o o o o o o o 1 H H H H H H H H H H H y # Y.9X9X9X9X9X9X9X9X9X9X",
"H H H H H H H H H H 8 o o :.9X9X9X9X9X9X9X9X9X9X9X2XQ o o o o o o o o o o o 1 H H H H H H H H H H H y o o + Y.9X9X9X9X9X9X9X9X9X",
"H H H H H H H H H 4 o o o o :.9X9X9X9X9X9X9X9X9X9X9X9X! o o o o o o o o o 1 H H H H H H H H H H H y o o o o + Y.9X9X9X9X9X9X9X9X",
"H H H H H H H H 4 o o o o o o >.9X9X9X9X9X9X9X9X9X9X9X9X~ o o o o o o o 1 H H H H H H H H H H H y o o o o o o + Y.9X9X9X9X9X9X9X",
"H H H H H H H 5 o o o o o o o o >.9X9X9X9X9X9X9X9X9X9X9X9X~ o o o o o 1 H H H H H H H H H H H y o o o o o o o o + !.9X9X9X9X9X9X",
"H H H H H H 2 o o o o o o o o o o >.9X9X9X9X9X9X9X9X9X9X9X9XQ o o o 1 H H H H H H H H H H H y o o o o o o o o o o o !.9X9X9X9X9X",
"H H H H ` %X1.o o o o o o o o o o o ,.9X9X9X9X9X9X9X9X9X9X9X9XW o 1 H H H H H H H H H H H 6.[.o o o o o o o o o o o o !.9X9X9X9X",
"H H H ( &X9X9X1.o o o o o o o o o o o ,.9X9X9X9X9X9X9X9X9X9X9XqXK H H H H H H H H H H H 6.5X9X{.o o o o o o o o o o o o !.9X9X9X",
"H H ^ ;X9X9X9X9X1.o o o o o o o o o o o ,.9X9X9X9X9X9X9X9X9X9XG.H H H H H H H H H H H 6.5X9X9X9X{.o o o o o o o o o o o o _.9X9X",
"H / =X9X9X9X9X9X9X2.o o o o o o o o o o o <.9X9X9X9X9X9X9X9XH.H H H H H H H H H H H 6.5X9X9X9X9X9X{.o o o o o o o o o o o o _.9X",
"/ -X9X9X9X9X9X9X9X9X2.o o o o o o o o o o o <.9X9X9X9X9X9XG.H H H H H H H H H H H 6.5X9X9X9X9X9X9X9X{.o o o o o o o o o o o o `.",
"=X9X9X9X9X9X9X9X9X9X9X2.o o o o o o o o o o o <.9X9X9X9XD.H H H H H H H H H H H 6.5X9X9X9X9X9X9X9X9X9X{.o o o o o o o o o o o o ",
"9X9X9X9X9X9X9X9X9X9X9X.X4 o o o o o o o o o o o <.9X9XD.H H H H H H H H H H H 6.5X9X9X9X9X9X9X9X9X9X9X2X| ; o o o o o o o o o o ",
"9X9X9X9X9X9X9X9X9X9XXXP H 4 o o o o o o o o o o o <.x.H H H H H H H H H H H 6.5X9X9X9X9X9X9X9X9X9X9X2X&.H Z ; o o o o o o o o o ",
"9X9X9X9X9X9X9X9X9XXXP H H H 4 o o o o o o o o o o o 5 H H H H H H H H H H 6.5X9X9X9X9X9X9X9X9X9X9X2X%.H H H S ; o o o o o o o o ",
"9X9X9X9X9X9X9X9XXXP H H H H H 4 o o o o o o o o o o o 7 H H H H H H H H 6.5X9X9X9X9X9X9X9X9X9X9X2X=.H H H H H D ; o o o o o o o ",
"9X9X9X9X9X9X9XXXP H H H H H H H 6 o o o o o o o o o o o 8 H H H H H H 6.5X9X9X9X9X9X9X9X9X9X9X2X*.H H H H H H H A ; o o o o o o ",
"9X9X9X9X9X9XXXP H H H H H H H H H 6 o o o o o o o o o o o 9 H H H H 6.5X9X9X9X9X9X9X9X9X9X9X2X%.H H H H H H H H H V ; o o o o o ",
"9X9X9X9X9Xk.S H H H H H H H H H H H 6 o o o o o o o o o o o 0 H H 6.5X9X9X9X9X9X9X9X9X9X9X2X4.H H H H H H H H H H H Z = o o o o ",
"9X9X9X9Xf.o * C H H H H H H H H H H H 6 o o o o o o o o o o o 9 6.5X9X9X9X9X9X9X9X9X9X9X2X*.H H H H H H H H H H H H H C = o o o ",
"9X9X9Xg.o o o * C H H H H H H H H H H H 3 o o o o o o o o o o s 4X9X9X9X9X9X9X9X9X9X9X2X*.H H H H H H H H H H H H H H H Z = o o ",
"9X9Xh.O o o o o * C H H H H H H H H H H H 3 o o o o o o o o d 9X9X9X9X9X9X9X9X9X9X9X2X%.H H H H H H H H H H H H H H H H H Z = o ",
"9Xj.o o o o o o o ; C H H H H H H H H H H H 3 o o o o o o g 9X9X9X9X9X9X9X9X9X9X9X2X$.H H H H H H H H H H H H H H H H H H H S = ",
"l.O o o o o o o o o ; C H H H H H H H H H H H 2 o o o o s 9X9X9X9X9X9X9X9X9X9X9X2X+.H H H H H H H H H H H H H H H H H H H H H C ",
"o o o o o o o o o o o : [ H H H H H H H H H H H 2 o o f 5X9X9X9X9X9X9X9X9X9X9X2X#.H H H H H H H H H H H { H H H H H H H H H H H ",
"o o o o o o o o o o o `.>X' H H H H H H H H H H H 2 g 5X9X9X9X9X9X9X9X9X9X9X2X#.H H H H H H H H H H H ;.8XF.H H H H H H H H H H ",
"o o o o o o o o o o `.9X9X:X_ H H H H H H H H H H H  X9X9X9X9X9X9X9X9X9X9X2X#.H H H H H H H H H H H 3.8X9X9XF.H H H H H H H H H ",
"o o o o o o o o o `.9X9X9X9X,X` H H H H H H H H H H ^ OX9X9X9X9X9X9X9X9X2X@.H H H H H H H H H H H 5.7X9X9X9X9XF.H H H H H H H H ",
"o o o o o o o o `.9X9X9X9X9X9X:X` H H H H H H H H H H ( %X9X9X9X9X9X9X2XO.H H H H H H H H H H H ;.7X9X9X9X9X9X9XF.H H H H H H H ",
"o o o o o o o `.9X9X9X9X9X9X9X9X=X` H H H H H H H H H H ` #X9X9X9X9X2XO.H H H H H H H H H H H ;.8X9X9X9X9X9X9X9X9XF.H H H H H H ",
"o o o o o o `.9X9X9X9X9X9X9X9X9X9X:X_ H H H H H H H H H H ` -X9X9X2X$.H H H H H H H H H H H -.8X9X9X9X9X9X9X9X9X9X9XF.H H H H H ",
"o o o o * B ~.9X9X9X9X9X9X9X9X9X9X9X-X^ H H H H H H H H H H ] &X2Xo.H H H H H H H H H H H h E 0X9X9X9X9X9X9X9X9X9X9X9XF.H H H H ",
"o o o * C H H W.9X9X9X9X9X9X9X9X9X9X9X*X^ H H H H H H H H H H [ ..H H H H H H H H H H H j # o R 0X9X9X9X9X9X9X9X9X9X9X9XF.H H H ",
"o o * C H H H H ~.9X9X9X9X9X9X9X9X9X9X9X-X^ H H H H H H H H H F H H H H H H H H H H H j o o o o T 3X9X9X9X9X9X9X9X9X9X9X9XF.H H ",
"o * C H H H H H H ~.9X9X9X9X9X9X9X9X9X9X9X$X^ H H H H H H H G H H H H H H H H H H H j o o o o o o Y 3X9X9X9X9X9X9X9X9X9X9X9XF.H ",
"* C H H H H H H H H ~.9X9X9X9X9X9X9X9X9X9X9X%X^ H H H H H G H H H H H H H H H H H z + o o o o o o o Y 3X9X9X9X9X9X9X9X9X9X9X9XF.",
"C H H H H H H H H H H '.9X9X9X9X9X9X9X9X9X9X9X@XI H H H H H H H H H H H H H H H a o o o o o o o o o o U 3X9X9X9X9X9X9X9X9X9X9X9X",
"H H H H H H H H H H H V l.9X9X9X9X9X9X9X9X9X9X9XoXP H H H H H H H H H H H H H a o o o o o o o o o o o O | <X9X9X9X9X9X9X9X9X9X9X",
"H H H H H H H H H H N & o z.9X9X9X9X9X9X9X9X9X9X9XoXH H H H H H H H H H H H h o o o o o o o o o o o o v H } <X9X9X9X9X9X9X9X9X9X",
"H H H H H H H H H M & o o o v.9X9X9X9X9X9X9X9X9X9X9X].H H H H H H H H H H p o o o o o o o o o o o o m H H H } <X9X9X9X9X9X9X9X9X",
"H H H H H H H H M & o o o o # v.9X9X9X9X9X9X9X9X9X9X9X/.H H H H H H H H u o o o o o o o o o o o o b H H H H H } <X9X9X9X9X9X9X9X",
"H H H H H H H M & o o o o o o # N.9X9X9X9X9X9X9X9X9X9X9X'.H H H H H H t o o o o o o o o o o o o c H H H H H H H } <X9X9X9X9X9X9X",
"H H H H H H M & o o o o o o o o # M.9X9X9X9X9X9X9X9X9X9X9X^.H H H H e X o o o o o o o o o o o l H H H H H H H H H } <X9X9X9X9X9X",
"H H H H H t & o o o o o o o o o o # B.9X9X9X9X9X9X9X9X9X9X9XR.H H e X o o o o o o o o o o o L H H H H H H H H H H H } <X9X9X9X9X",
"H H H H r O o o o o o o o o o o o o o C.9X9X9X9X9X9X9X9X9X9X9XT.t o o o o o o o o o o o o r.2XX.H H H H H H H H H H H } <X9X9X9X",
"H H H w O o o o o o o o o o o o o o o o Z.9X9X9X9X9X9X9X9X9X9X(.O o o o o o o o o o o o 7.9X9X2XX.H H H H H H H H H H H } <X9X9X",
"H H w O o o o o o o o o o o o o o o o o o A.9X9X9X9X9X9X9X9XQ.o o o o o o o o o o o o t.9X9X9X9X2XX.H H H H H H H H H H H } <X9X",
"H q o o o o o o o o o o o o o o o o o o o o A.9X9X9X9X9X9XQ.o o o o o o o o o o o o y.9X9X9X9X9X9X2XX.H H H H H H H H H H H } <X",
"q o o o o o o o o o   o o o o o o o o o o o o K.9X9X9X9XE.O o o o o o o o o o o o y.9X9X9X9X9X9X9X9X2XX.H H H H H H H H H H H } ",
"o o o o o o o o o o o # + o o o o o o o o o o o K.9X9XU.O o o o o o o o o o o o i.9X9X9X9X9X9X9X9X9X9X2X} H H H H H H H H H H H ",
"o o o o o o o o o o o J.N.+ o o o o o o o o o o o K.U.+ o o o o o o o o o o o s.9X9X9X9X9X9X9X9X9X9X9XS.O n H H H H H H H H H H ",
"o o o o o o o o o o J.9X9Xm.+ o o o o o o o o o o o % o o o o o o o o o o o u.9X9X9X9X9X9X9X9X9X9X9XV.$ o o n H H H H H H H H H ",
"o o o o o o o o O L.9X9X9X9Xc.o o o o o o o o o o o o + o o o o o o o o O p.9X9X9X9X9X9X9X9X9X9X9XM.$ o o o o n H H H H H H H H ",
"o o o o o o o O P.9X9X9X9X9X9Xl.o o o o o o o o o o o o o o o o o o o O i.9X9X9X9X9X9X9X9X9X9X9Xn.o o o o o o o n H H H H H H H ",
"o o o o o o + I.9X9X9X9X9X9X9X9Xc.o o o o o o o o o o o o . o o o o O a.9X9X9X9X9X9X9X9X9X9X9Xb.o o o o o o o o o n H H H H H H "
};
