/* XPM */
static char *result[] = {
/* columns rows colors chars-per-pixel */
"64 64 30 1 ",
"  c #62320D",
". c #63330E",
"X c #65340E",
"o c #66350F",
"O c #663612",
"+ c #673712",
"@ c #6A3C16",
"# c #6B3E1A",
"$ c #9E5015",
"% c #A05517",
"& c #A05319",
"* c #A05419",
"= c #A1551B",
"- c #C78F2C",
"; c #C78F2D",
": c #C88F2D",
"> c #C8902D",
", c #E5C791",
"< c #E5C792",
"1 c #E6C792",
"2 c #E6C892",
"3 c #E6C893",
"4 c #E7C994",
"5 c #E7C895",
"6 c #E7C995",
"7 c #E8C996",
"8 c #F2E4CA",
"9 c #F3E5CA",
"0 c #F3E4CB",
"q c #F3E5CB",
/* pixels */
"$$$$$$$$$$$$$$$$$$$$$$$$$$$$$$$$                                ",
"$$$$$$$$$$$$$$$$$$$$$$$$$$$$$$$$                                ",
"$$$$$$$$$$$$$$$$$$$$$$$$$$$$$$$$                                ",
"$$$$$$$$$$$$$$$$$$$$$$$$$$$$$$$$                                ",
"$$$$$$$$$$$$$$$$$$$$$$$$$$$$$$$$                                ",
"$$$$$$$$$$$$$$$$$$$$$$$$$$$$$$$$                                ",
"$$$$$$$$$$$$$$$$$$$$$$$$$$$$$$$$                                ",
"$$$$$$$$*******&%%%%%%%%$$$$$$$$                                ",
"$$$$$$$*4444444,--------qqqqqqqq444444444444444444444444O       ",
"$$$$$$$*4444444<------->qqqqqqqq444444444444444444444444O       ",
"$$$$$$$*4444444<------->qqqqqqqq444444444444444444444444O       ",
"$$$$$$$*44444441------->qqqqqqqq444444444444444444444444O       ",
"$$$$$$$*44444441------->qqqqqqqq444444444444444444444444O       ",
"$$$$$$$*44444442------->qqqqqqqq444444444444444444444444O       ",
"$$$$$$$*44444442------->qqqqqqqq444444444444444444444444O       ",
"$$$$$$$*44444442-------:qqqqqqqq444444444444444444444444+       ",
"$$$$$$$*44444442-------:44444444------------------------X       ",
"$$$$$$$*44444442-------:44444444------------------------X       ",
"$$$$$$$*44444442-------:44444444------------------------X       ",
"$$$$$$$*44444442-------:44444444------------------------X       ",
"$$$$$$$*44444442-------:44444444------------------------X       ",
"$$$$$$$*44444442--------44444444------------------------X       ",
"$$$$$$$*44444442------->44444444------------------------X       ",
"$$$$$$$*44444442------->44444444------------------------o       ",
"$$$$$$$*44444442------->qqqqqqqq444444440qqqqqqq74444444+       ",
"$$$$$$$*44444442------->qqqqqqqq444444440qqqqqqq74444444+       ",
"$$$$$$$*44444442------->qqqqqqqq444444440qqqqqqq74444444+       ",
"$$$$$$$*44444442------->qqqqqqqq444444440qqqqqqq74444444+       ",
"$$$$$$$*44444442-------:qqqqqqqq444444440qqqqqqq74444444+       ",
"$$$$$$$*44444442-------;qqqqqqqq444444440qqqqqqq74444444+       ",
"$$$$$$$*44444442-------:qqqqqqqq444444440qqqqqqq74444444+       ",
"$$$$$$$*44444442-------:qqqqqqqq444444440qqqqqqq74444444+       ",
"$$$$$$$*44444442-------:44444444--------8qqqqqqq74444444+       ",
"$$$$$$$*44444442-------:44444444--------8qqqqqqq74444444+       ",
"$$$$$$$*44444442-------:44444444--------8qqqqqqq74444444+       ",
"$$$$$$$*44444441-------:44444444--------8qqqqqqq74444444+       ",
"$$$$$$$*44444441-------:44444444--------8qqqqqqq74444444+       ",
"$$$$$$$*4444444<--------44444444--------8qqqqqqq74444444+       ",
"$$$$$$$*44444443-------:44444444--------8qqqqqqq74444444+       ",
"$$$$$$$*44444446------->44444444--------8qqqqqqq74444444+       ",
"$$$$$$$=00000009qqqqqqqqqqqqqqqq444444440qqqqqqq74444444+       ",
"$$$$$$$=qqqqqqqqqqqqqqqqqqqqqqqq444444440qqqqqqq74444444+       ",
"$$$$$$$=qqqqqqqqqqqqqqqqqqqqqqqq444444440qqqqqqq74444444+       ",
"$$$$$$$=qqqqqqqqqqqqqqqqqqqqqqqq444444440qqqqqqq74444444+       ",
"$$$$$$$=qqqqqqqqqqqqqqqqqqqqqqqq444444440qqqqqqq74444444+       ",
"$$$$$$$=qqqqqqqqqqqqqqqqqqqqqqqq444444440qqqqqqq74444444+       ",
"$$$$$$$=qqqqqqqqqqqqqqqqqqqqqqqq444444440qqqqqqq74444444+       ",
"$$$$$$$=qqqqqqqqqqqqqqqqqqqqqqqq444444440qqqqqqq74444444+       ",
"$$$$$$$*444444444444444444444444--------8qqqqqqq74444444+       ",
"$$$$$$$*444444444444444444444444--------8qqqqqqq74444444+       ",
"$$$$$$$*444444444444444444444444--------8qqqqqqq74444444+       ",
"$$$$$$$*444444444444444444444444--------8qqqqqqq74444444+       ",
"$$$$$$$*444444444444444444444444--------8qqqqqqq74444444+       ",
"$$$$$$$*444444444444444444444444--------8qqqqqqq74444444+       ",
"$$$$$$$*444444444444444444444444--------8qqqqqqq74444444+       ",
"$$$$$$$*444444444444444444444444--------8qqqqqqq54444444+       ",
"$$$$$$$$$$$$$$$$$$$$$$$$$$$$$$$$        ########@@@@@@@@.       ",
"$$$$$$$$$$$$$$$$$$$$$$$$$$$$$$$$                                ",
"$$$$$$$$$$$$$$$$$$$$$$$$$$$$$$$$                                ",
"$$$$$$$$$$$$$$$$$$$$$$$$$$$$$$$$                                ",
"$$$$$$$$$$$$$$$$$$$$$$$$$$$$$$$$                                ",
"$$$$$$$$$$$$$$$$$$$$$$$$$$$$$$$$                                ",
"$$$$$$$$$$$$$$$$$$$$$$$$$$$$$$$$                                ",
"$$$$$$$$$$$$$$$$$$$$$$$$$$$$$$$$                                "
};
