/* XPM */
static char *result[] = {
/* columns rows colors chars-per-pixel */
"64 64 84 1 ",
"  c #BD551E",
". c #BD551F",
"X c #BA5723",
"o c #BC5620",
"O c #BD5620",
"+ c #BD5621",
"@ c #BC5622",
"# c #B3592B",
"$ c #B4592B",
"% c #B55B2B",
"& c #B65B2B",
"* c #B55A2C",
"= c #B65D2C",
"- c #B75D2C",
"; c #BA5E2C",
": c #BD612C",
"> c #BE612C",
", c #BE622C",
"< c #C75214",
"1 c #C75314",
"2 c #C75315",
"3 c #C85415",
"4 c #C95415",
"5 c #C95416",
"6 c #C95616",
"7 c #CA5717",
"8 c #CB5717",
"9 c #C0551C",
"0 c #CB5818",
"q c #CB5918",
"w c #CC5A19",
"e c #CC5B1A",
"r c #CD5B1A",
"t c #CD5C1A",
"y c #CD5C1B",
"u c #CE5C1B",
"i c #C05720",
"p c #C35A20",
"a c #C45A20",
"s c #C45E23",
"d c #D56823",
"f c #D4722F",
"g c #DA7128",
"h c #DB7428",
"j c #DC742A",
"k c #DD742A",
"l c #DD742B",
"z c #DD752B",
"x c #DA742D",
"c c #DE792B",
"v c #DE7A2B",
"b c #DF7B2C",
"n c #D87530",
"m c #D87630",
"M c #D97630",
"N c #E17B2F",
"B c #E07C2D",
"V c #E17C2F",
"C c #E27C2F",
"Z c #E27F2F",
"A c #E07C31",
"S c #E17C31",
"D c #E27C30",
"F c #E27D31",
"G c #E27E31",
"H c #E37E31",
"J c #E48032",
"K c #E58533",
"L c #E7913D",
"P c #E7923D",
"I c #EB9038",
"U c #EB9039",
"Y c #EC9138",
"T c #EC9039",
"R c #EF963B",
"E c #E8913C",
"W c #E8933E",
"Q c #EA963F",
"! c #EF953D",
"~ c #EF9B3F",
"^ c #F1993E",
"/ c #F29B3F",
"( c #F39E40",
") c #F5A142",
/* pixels */
"))))))))))))))))))))~=####################f;###################X",
")))))))))))))))))))Q-###################$MHA:#################@<",
"))))))))))))))))))W-###################*MHHHA>###############+<<",
")))))))))))))))))P-###################&MHHHHHA>#############o<<<",
"))))))))))))))))L-###################&mHHHHHHHA>###########o<<<<",
")))))))))))))))L-###################&mHHHHHHHHHS>#########O<<<<<",
"))))))))))))))L-###################&mHHHHHHHHHHHS>#######O<<<<<<",
")))))))))))))L-###################&mHHHHHHHHHHHHHS>#####O<<<<<<<",
"))))))))))))L-###################&mHHHHHHHHHHHHHHHS,###O<<<<<<<<",
")))))))))))L-###################%mHHHHHHHHHHHHHHHHHS:#O<<<<<<<<<",
"))))))))))E-###################%mHHHHHHHHHHHHHHHHHHHSp<<<<<<<<<<",
")))))))))U7.##################%mHHHHHHHHHHHHHHHHHHHHd<<<<<<<<<<<",
"))))))))I7<<.################%mHHHHHHHHHHHHHHHHHHHHd<<<<<<<<<<<<",
")))))))I7<<<<.##############%mHHHHHHHHHHHHHHHHHHHHd<<<<<<<<<<<<<",
"))))))I7<<<<<<.############%mHHHHHHHHHHHHHHHHHHHHd<<<<<<<<<<<<<<",
")))))I7<<<<<<<<.##########%mHHHHHHHHHHHHHHHHHHHHd<<<<<<<<<<<<<<<",
"))))I7<<<<<<<<<<.########%nHHHHHHHHHHHHHHHHHHHHd<<<<<<<<<<<<<<<<",
")))I7<<<<<<<<<<<<.######%nHHHHHHHHHHHHHHHHHHHHd<<<<<<<<<<<<<<<<<",
"))I7<<<<<<<<<<<<<<.####%nHHHHHHHHHHHHHHHHHHHHd<<<<<<<<<<<<<<<<<<",
")Y7<<<<<<<<<<<<<<<<i##%nHHHHHHHHHHHHHHHHHHHHd<<<<<<<<<<<<<<<<<<<",
"R7<<<<<<<<<<<<<<<<<<a%nHHHHHHHHHHHHHHHHHHHHd<<<<<<<<<<<<<<<<<<<<",
"8<<<<<<<<<<<<<<<<<<<3xHHHHHHHHHHHHHHHHHHHHd<<<<<<<<<<<<<<<<<<<<6",
"<<<<<<<<<<<<<<<<<<<3jHHHHHHHHHHHHHHHHHHHHd<<<<<<<<<<<<<<<<<<<<wN",
"<<<<<<<<<<<<<<<<<<3kHHHHHHHHHHHHHHHHHHHHd<<<<<<<<<<<<<<<<<<<<rVH",
"<<<<<<<<<<<<<<<<<3kHHHHHHHHHHHHHHHHHHHHd<<<<<<<<<<<<<<<<<<<<rVHH",
"<<<<<<<<<<<<<<<<3kHHHHHHHHHHHHHHHHHHHHd<<<<<<<<<<<<<<<<<<<<tVHHH",
"<<<<<<<<<<<<<<<3kHHHHHHHHHHHHHHHHHHHHd<<<<<<<<<<<<<<<<<<<<tVHHHH",
"<<<<<<<<<<<<<<3kHHHHHHHHHHHHHHHHHHHHd<<<<<<<<<<<<<<<<<<<<tVHHHHH",
"<<<<<<<<<<<<<3kHHHHHHHHHHHHHHHHHHHHd<<<<<<<<<<<<<<<<<<<<tVHHHHHH",
"<<<<<<<<<<<<3kHHHHHHHHHHHHHHHHHHHHd<<<<<<<<<<<<<<<<<<<<tVHHHHHHH",
"<<<<<<<<<<<3kHHHHHHHHHHHHHHHHHHHHd<<<<<<<<<<<<<<<<<<<<tVHHHHHHHH",
"<<<<<<<<<<3lHHHHHHHHHHHHHHHHHHHHd<<<<<<<<<<<<<<<<<<<<tDHHHHHHHHH",
"<<<<<<<<<3lHHHHHHHHHHHHHHHHHHHHKv<<<<<<<<<<<<<<<<<<<tDHHHHHHHHHH",
"<<<<<<<<5lHHHHHHHHHHHHHHHHHHHHK))v<<<<<<<<<<<<<<<<<yDHHHHHHHHHHH",
"<<<<<<<5lHHHHHHHHHHHHHHHHHHHHT))))v<<<<<<<<<<<<<<<yDHHHHHHHHHHHH",
"<<<<<<5lHHHHHHHHHHHHHHHHHHHH!))))))v<<<<<<<<<<<<<yDHHHHHHHHHHHHH",
"<<<<<5lHHHHHHHHHHHHHHHHHHHH!))))))))v<<<<<<<<<<<yDHHHHHHHHHHHHHH",
"<<<<5lHHHHHHHHHHHHHHHHHHHH!))))))))))v<<<<<<<<<yDHHHHHHHHHHHHHHH",
"<<<4lHHHHHHHHHHHHHHHHHHHH!))))))))))))v<<<<<<<yDHHHHHHHHHHHHHHHH",
"<<3zHHHHHHHHHHHHHHHHHHHH!))))))))))))))v<<<<<yDHHHHHHHHHHHHHHHHH",
"<2zHHHHHHHHHHHHHHHHHHHH!))))))))))))))))v<<<yDHHHHHHHHHHHHHHHHHH",
"1zHHHHHHHHHHHHHHHHHHHH!))))))))))))))))))B<uDHHHHHHHHHHHHHHHHHHH",
"gHHHHHHHHHHHHHHHHHHHH!))))))))))))))))))))ZDHHHHHHHHHHHHHHHHHHHG",
"qVHHHHHHHHHHHHHHHHHH!))))))))))))))))))))^JHHHHHHHHHHHHHHHHHHHF,",
"<rVHHHHHHHHHHHHHHHH!))))))))))))))))))))^JHHHHHHHHHHHHHHHHHHHF>#",
"<<tVHHHHHHHHHHHHHH!))))))))))))))))))))^JHHHHHHHHHHHHHHHHHHHS>##",
"<<<tVHHHHHHHHHHHH!))))))))))))))))))))^JHHHHHHHHHHHHHHHHHHHS>###",
"<<<<tDHHHHHHHHHH!))))))))))))))))))))^JHHHHHHHHHHHHHHHHHHHS>####",
"<<<<<tDHHHHHHHH!))))))))))))))))))))^JHHHHHHHHHHHHHHHHHHHS>#####",
"<<<<<<yDHHHHHH!))))))))))))))))))))^JHHHHHHHHHHHHHHHHHHHS>######",
"<<<<<<<yDHHHH!))))))))))))))))))))^JHHHHHHHHHHHHHHHHHHHS>#######",
"<<<<<<<<yDHH!))))))))))))))))))))^JHHHHHHHHHHHHHHHHHHHS,########",
"<<<<<<<<<eD!))))))))))))))))))))^JHHHHHHHHHHHHHHHHHHHS,#########",
"<<<<<<<<<<b))))))))))))))))))))^JHHHHHHHHHHHHHHHHHHHDs##########",
"<<<<<<<<<c))))))))))))))))))))^JHHHHHHHHHHHHHHHHHHHDe<.#########",
"<<<<<<<<c))))))))))))))))))))^JHHHHHHHHHHHHHHHHHHHDy<<<.########",
"<<<<<<<c))))))))))))))))))))^JHHHHHHHHHHHHHHHHHHHDy<<<<<.#######",
"<<<<<<c))))))))))))))))))))^JHHHHHHHHHHHHHHHHHHHDy<<<<<<<.######",
"<<<<<c))))))))))))))))))))^JHHHHHHHHHHHHHHHHHHHDt<<<<<<<<<.#####",
"<<<<c))))))))))))))))))))^JHHHHHHHHHHHHHHHHHHHVt<<<<<<<<<<<.####",
"<<<c))))))))))))))))))))^JHHHHHHHHHHHHHHHHHHHVt<<<<<<<<<<<<<.###",
"<<c))))))))))))))))))))^JHHHHHHHHHHHHHHHHHHHVt<<<<<<<<<<<<<<<.##",
"<c))))))))))))))))))))/JHHHHHHHHHHHHHHHHHHHVr<<<<<<<<<<<<<<<<< #",
"h))))))))))))))))))))(JHHHHHHHHHHHHHHHHHHHC0<<<<<<<<<<<<<<<<<<<9"
};
