/* XPM */
static char *result[] = {
/* columns rows colors chars-per-pixel */
"64 64 100 2 ",
"   c #35231F",
".  c #4B2A1F",
"X  c #4B2B1F",
"o  c #522B1B",
"O  c #56321D",
"+  c #752A07",
"@  c #602C14",
"#  c #7D3713",
"$  c #7B3614",
"%  c #793717",
"&  c #7C3715",
"*  c #733F18",
"=  c #422C27",
"-  c #492B20",
";  c #492B21",
":  c #4A2E21",
">  c #4D2F23",
",  c #4E342E",
"<  c #533A2F",
"1  c #5F3A2B",
"2  c #60392B",
"3  c #703E29",
"4  c #594138",
"5  c #594238",
"6  c #7D4427",
"7  c #61423A",
"8  c #61433A",
"9  c #7E4A34",
"0  c #7B503F",
"q  c #7B513F",
"w  c #6D4B42",
"e  c #6E4D42",
"r  c #745247",
"t  c #7E5142",
"y  c #7D5243",
"u  c #7E5243",
"i  c #7B5446",
"p  c #7B5546",
"a  c #755148",
"s  c #795548",
"d  c #72594A",
"f  c #735B4B",
"g  c #7C584D",
"h  c #7F5B53",
"j  c #7F6E5D",
"k  c #9B4F0F",
"l  c #84441E",
"z  c #87481D",
"x  c #8C491B",
"c  c #924B16",
"v  c #924C15",
"b  c #844523",
"n  c #844623",
"m  c #844625",
"M  c #8D532D",
"N  c #8E532C",
"B  c #90572F",
"V  c #805333",
"C  c #915730",
"Z  c #92623F",
"A  c #8A6656",
"S  c #8B6658",
"D  c #8A6B59",
"F  c #8D685A",
"G  c #BD7E46",
"H  c #A77B5A",
"J  c #A87B5A",
"K  c #A87C5B",
"L  c #897261",
"P  c #8A7262",
"I  c #957B65",
"U  c #947C64",
"Y  c #957E6A",
"T  c #957F6A",
"R  c #BE8048",
"E  c #BF824A",
"W  c #AE8560",
"Q  c #A3806D",
"!  c #A5816F",
"~  c #B28E6D",
"^  c #BE946F",
"/  c #A28D75",
"(  c #A48F77",
")  c #AB8C72",
"_  c #AC8D72",
"`  c #A49077",
"'  c #A79077",
"]  c #A59078",
"[  c #A99279",
"{  c #BE9570",
"}  c #BD9C7A",
"|  c #DEAE7D",
" . c #E0AF7E",
".. c #CBB292",
"X. c #D8BD9A",
"o. c #D9BD9B",
"O. c #DBBF9B",
"+. c #EAC9A3",
"@. c #FDD7AD",
"#. c None",
/* pixels */
"#.#.#.#.#.#.#.#.#.#.#.#.#.#.#.#.#.#.#.#.#.#.#.#.#.#.#.#.#.#.#.#.#.#.#.#.#.#.#.#.#.#.#.#.#.#.#.#.#.#.#.#.#.#.#.#.#.#.#.#.#.#.#.#.",
"#.#.#.#.#.#.#.#.#.#.#.#.#.#.#.#.#.#.#.#.#.#.#.#.#.#.#.#.#.#.#.#.#.#.#.#.#.#.#.#.#.#.#.#.#.#.#.#.#.#.#.#.#.#.#.#.#.#.#.#.#.#.#.#.",
"#.#.#.#.#.#.#.#.#.#.#.#.#.#.#.#.#.#.#.#.#.#.#.#.#.#.#.#.#.#.#.#.#.#.#.#.#.#.#.#.#.#.#.#.#.#.#.#.#.#.#.#.#.#.#.#.#.#.#.#.#.#.#.#.",
"#.#.#.t h h h h g s s s a , , , , , , , =       : k k z 6 6 6 6 6 6 6 6 6 6 6 t h h h h g s s s 7 , , , , , , , =       * #.#.#.",
"#.#.#.6 t h h g s s s a , , , , , , , =       : k k k k z 6 6 6 6 6 6 6 6 6 6 6 t h h g s s s 7 , , , , , , , =       * k #.#.#.",
"#.#.#.6 6 t g s s s a , , , , , , , =       : k k k k k k z 6 6 6 6 6 6 6 6 6 6 6 t g s s s 7 , , , , , , , =       * k k #.#.#.",
"#.#.#.6 6 6 i s s a , , , , , , , =       : k k k k k k k k z 6 6 6 6 6 6 6 6 6 6 6 i s s 7 , , , , , , , =       * k k k #.#.#.",
"#.#.#.6 6 6 6 p r , , , , , , , =       : k k k k k k k k k k z 6 6 6 6 6 6 6 6 6 6 6 p 8 , , , , , , , =       * k k k k #.#.#.",
"#.#.#.6 6 6 6 6 2 , , , , , , =       4 R k k k k k k k k k k k z 6 6 6 6 6 6 6 6 6 6 6 2 , , , , , , =       _  .k k k k #.#.#.",
"#.#.#.6 6 6 6 6 6 2 , , , , =       4 @.@.R k k k k k k k k k k k z 6 6 6 6 6 6 6 6 6 6 6 2 , , , , =       _ @.@. .k k k #.#.#.",
"#.#.#.6 6 6 6 6 6 6 2 , , =       4 @.@.@.@.R k k k k k k k k k k k z 6 6 6 6 6 6 6 6 6 6 6 2 , , =       _ @.@.@.@. .k k #.#.#.",
"#.#.#.6 6 6 6 6 6 6 6 2 =       4 @.@.@.@.@.@.R k k k k k k k k k k k z 6 6 6 6 6 6 6 6 6 6 6 2 =       _ @.@.@.@.@.@. .k #.#.#.",
"#.#.#.6 6 6 6 6 6 6 6 % @     4 @.@.@.@.@.@.@.@.R k k k k k k k k k k k z 6 6 6 6 6 6 6 6 6 6 % X     _ @.@.@.@.@.@.@.@.| #.#.#.",
"#.#.#.6 6 6 6 6 6 6 % + + @ 5 @.@.@.@.@.@.@.@.@.@.R k k k k k k k k k k k z 6 6 6 6 6 6 6 6 % + + ; ) @.@.@.@.@.@.@.@.@.@.#.#.#.",
"#.#.#.6 6 6 6 6 6 % + + + n o.@.@.@.@.@.@.@.@.@.@.@.R k k k k k k k k k k k z 6 6 6 6 6 6 % + + + H O.@.@.@.@.@.@.@.@.@.@.#.#.#.",
"#.#.#.v 6 6 6 6 % + + + n ....o.@.@.@.@.@.@.@.@.@.@.@.R k k k k k k k k k k k z 6 6 6 6 % + + + H ....O.@.@.@.@.@.@.@.@.@.#.#.#.",
"#.#.#.k v 6 6 % + + + n ........o.@.@.@.@.@.@.@.@.@.@.@.R k k k k k k k k k k k z 6 6 % + + + H ........O.@.@.@.@.@.@.@.@.#.#.#.",
"#.#.#.k k v % + + + n ............o.@.@.@.@.@.@.@.@.@.@.@.R k k k k k k k k k k k z % + + + H ............O.@.@.@.@.@.@.@.#.#.#.",
"#.#.#.k k x # + + n ..............] ( @.@.@.@.@.@.@.@.@.@.@.R k k k k k k k k k k x $ + + H ..............] ' @.@.@.@.@.@.#.#.#.",
"#.#.#.k x 6 6 # b ..............] j j ( @.@.@.@.@.@.@.@.@.@.@.R k k k k k k k k x 6 6 $ J ..............] j j ' @.@.@.@.@.#.#.#.",
"#.#.#.x 6 6 6 B ..............] j j j L ! @.@.@.@.@.@.@.@.@.@.@.R k k k k k k x 6 6 6 W ..............] j j j T Q @.@.@.@.#.#.#.",
"#.#.#.6 6 6 B ..............] j j j L h h ! @.@.@.@.@.@.@.@.@.@.@.R k k k k x 6 6 6 W ..............] j j j T h h Q @.@.@.#.#.#.",
"#.#.#.6 6 B ..............] j j j L h h h h ! @.@.@.@.@.@.@.@.@.@.@.R k k x 6 6 6 W ..............] j j j T h h h h Q @.@.#.#.#.",
"#.#.#.6 B ..............] j j j L h h h h h h ! @.@.@.@.@.@.@.@.@.@.@.R x 6 6 6 W ..............] j j j T h h h h h h Q @.#.#.#.",
"#.#.#.C ..............] j j j L h h h h h h h g F @.@.@.@.@.@.@.@.@.@.{ M 6 6 W ..............] j j j T h h h h h h h g S #.#.#.",
"#.#.#...............] j j j L h h h h h h h g s s F @.@.@.@.@.@.@.@.{ V V N W ..............] j j j T h h h h h h h g s s #.#.#.",
"#.#.#.............] j j j L h h h h h h h g s s s w D @.@.@.@.@.@.{ V V V } ..............] j j j T h h h h h h h g s s s #.#.#.",
"#.#.#...........] j j j L h h h h h h h g s s s w , , D @.@.@.@.{ V V V } ..............] j j j T h h h h h h h g s s s a #.#.#.",
"#.#.#.........] j j j L h h h h h h h g s s s w , , , , D @.@.^ V V V } ..............` j j j T h h h h h h h g s s s a , #.#.#.",
"#.#.#.......] j j j L h h h h h h h g s s s w , , , , , , D ^ V V V } ..............` j j j T h h h h h h h g s s s a , , #.#.#.",
"#.#.#.....] j j j L h h h h h h h g s s s w , , , , , , , = < V V } ..............` j j j Y h h h h h h h g s s s a , , , #.#.#.",
"#.#.#...] j j j L h h h h h h h g s s s w , , , , , , , =     < } ..............` j j j Y h h h h h h h g s s s a , , , , #.#.#.",
"#.#.#.] j j j L h h h h h h h g s s s w , , , , , , , =       > ~ ............` j j j Y h h h h h h h g s s s a , , , , , #.#.#.",
"#.#.#.j j j L h h h h h h h g s s s w , , , , , , , =       > 6 6 ~ ........` j j j Y h h h h h h h g s s s a , , , , , , #.#.#.",
"#.#.#.j j L h h h h h h h g s s s w , , , , , , , =       > 6 6 6 6 ~ ....` j j j Y h h h h h h h g s s s a , , , , , , , #.#.#.",
"#.#.#.j L h h h h h h h g s s s w , , , , , , , =       > 6 6 6 6 6 6 ~ ` j j j Y h h h h h h h g s s s a , , , , , , , = #.#.#.",
"#.#.#.P h h h h h h h g s s s w , , , , , , , =       > 6 6 6 6 6 6 6 6 I j j Y h h h h h h h g s s s a , , , , , , , =   #.#.#.",
"#.#.#.h h h h h h h g s s s w , , , , , , , =       > 6 6 6 6 6 6 6 6 6 6 U Y h h h h h h h g s s s a , , , , , , , =     #.#.#.",
"#.#.#.h h h h h h g s s s w , , , , , , , =       O c 6 6 6 6 6 6 6 6 6 6 6 y h h h h h h g s s s a , , , , , , , =       #.#.#.",
"#.#.#.9 h h h h g s s s w , , , , , , , =       O k k c 6 6 6 6 6 6 6 6 6 6 6 y h h h h g s s s a , , , , , , , =       * #.#.#.",
"#.#.#.6 9 h h g s s s w , , , , , , , =       O k k k k c 6 6 6 6 6 6 6 6 6 6 6 y h h g s s s a , , , , , , , =       * k #.#.#.",
"#.#.#.6 6 9 g s s s w , , , , , , , =       O k k k k k k c 6 6 6 6 6 6 6 6 6 6 6 u g s s s a , , , , , , , =       * k k #.#.#.",
"#.#.#.6 6 6 q s s w , , , , , , , =       O k k k k k k k k c 6 6 6 6 6 6 6 6 6 6 6 i s s a , , , , , , , =       * k k k #.#.#.",
"#.#.#.6 6 6 6 0 e , , , , , , , =       O k k k k k k k k k k c 6 6 6 6 6 6 6 6 6 6 6 p r , , , , , , , =       * k k k k #.#.#.",
"#.#.#.6 6 6 6 6 3 , , , , , , =       d  .k k k k k k k k k k k c 6 6 6 6 6 6 6 6 6 6 6 1 , , , , , , =       _ E k k k k #.#.#.",
"#.#.#.6 6 6 6 6 6 3 , , , , =       d @.@. .k k k k k k k k k k k c 6 6 6 6 6 6 6 6 6 6 6 1 , , , , =       _ @.@.E k k k #.#.#.",
"#.#.#.6 6 6 6 6 6 6 3 , , =       d @.@.@.@. .k k k k k k k k k k k c 6 6 6 6 6 6 6 6 6 6 6 1 , , =       _ @.@.@.@.E k k #.#.#.",
"#.#.#.6 6 6 6 6 6 6 6 3 =       d @.@.@.@.@.@. .k k k k k k k k k k k c 6 6 6 6 6 6 6 6 6 6 6 1 =       _ @.@.@.@.@.@.E k #.#.#.",
"#.#.#.6 6 6 6 6 6 6 6 % o     d @.@.@.@.@.@.@.@. .k k k k k k k k k k k c 6 6 6 6 6 6 6 6 6 6 % .     _ @.@.@.@.@.@.@.@.G #.#.#.",
"#.#.#.6 6 6 6 6 6 6 % + + o f @.@.@.@.@.@.@.@.@.@. .k k k k k k k k k k k c 6 6 6 6 6 6 6 6 % + + - ) @.@.@.@.@.@.@.@.@.@.#.#.#.",
"#.#.#.6 6 6 6 6 6 % + + + n +.@.@.@.@.@.@.@.@.@.@.@. .k k k k k k k k k k k c 6 6 6 6 6 6 % + + + H X.@.@.@.@.@.@.@.@.@.@.#.#.#.",
"#.#.#.z 6 6 6 6 % + + + n ....+.@.@.@.@.@.@.@.@.@.@.@. .k k k k k k k k k k k c 6 6 6 6 % + + + H ....X.@.@.@.@.@.@.@.@.@.#.#.#.",
"#.#.#.k z 6 6 % + + + n ........+.@.@.@.@.@.@.@.@.@.@.@. .k k k k k k k k k k k c 6 6 % + + + H ........X.@.@.@.@.@.@.@.@.#.#.#.",
"#.#.#.k k z % + + + n ............+.@.@.@.@.@.@.@.@.@.@.@. .k k k k k k k k k k k c % + + + K ............X.@.@.@.@.@.@.@.#.#.#.",
"#.#.#.k k x $ + + n ..............] [ @.@.@.@.@.@.@.@.@.@.@. .k k k k k k k k k k x l + + K ..............] / @.@.@.@.@.@.#.#.#.",
"#.#.#.k x 6 6 & m ..............] j j [ @.@.@.@.@.@.@.@.@.@.@. .k k k k k k k k x 6 6 l K ..............] j j / @.@.@.@.@.#.#.#.",
"#.#.#.x 6 6 6 B ..............] j j j L Q @.@.@.@.@.@.@.@.@.@.@. .k k k k k k x 6 6 6 W ..............] j j j L Q @.@.@.@.#.#.#.",
"#.#.#.6 6 6 B ..............] j j j L h h Q @.@.@.@.@.@.@.@.@.@.@. .k k k k x 6 6 6 W ..............] j j j L h h Q @.@.@.#.#.#.",
"#.#.#.6 6 B ..............] j j j L h h h h Q @.@.@.@.@.@.@.@.@.@.@. .k k x 6 6 6 W ..............] j j j L h h h h Q @.@.#.#.#.",
"#.#.#.6 B ..............] j j j L h h h h h h Q @.@.@.@.@.@.@.@.@.@.@. .x 6 6 6 W ..............] j j j L h h h h h h Q @.#.#.#.",
"#.#.#.C ..............] j j j L h h h h h h h g A @.@.@.@.@.@.@.@.@.@.{ Z 6 6 W ..............] j j j L h h h h h h h g S #.#.#.",
"#.#.#.#.#.#.#.#.#.#.#.#.#.#.#.#.#.#.#.#.#.#.#.#.#.#.#.#.#.#.#.#.#.#.#.#.#.#.#.#.#.#.#.#.#.#.#.#.#.#.#.#.#.#.#.#.#.#.#.#.#.#.#.#.",
"#.#.#.#.#.#.#.#.#.#.#.#.#.#.#.#.#.#.#.#.#.#.#.#.#.#.#.#.#.#.#.#.#.#.#.#.#.#.#.#.#.#.#.#.#.#.#.#.#.#.#.#.#.#.#.#.#.#.#.#.#.#.#.#.",
"#.#.#.#.#.#.#.#.#.#.#.#.#.#.#.#.#.#.#.#.#.#.#.#.#.#.#.#.#.#.#.#.#.#.#.#.#.#.#.#.#.#.#.#.#.#.#.#.#.#.#.#.#.#.#.#.#.#.#.#.#.#.#.#."
};
