/* XPM */
static char *result[] = {
/* columns rows colors chars-per-pixel */
"64 64 107 2 ",
"   c #6C8493",
".  c #6D8593",
"X  c #6C8494",
"o  c #6D8594",
"O  c #6D8595",
"+  c #6D8694",
"@  c #6D8695",
"#  c #6E8694",
"$  c #6E8695",
"%  c #6E8795",
"&  c #6F8795",
"*  c #6E8796",
"=  c #6F8796",
"-  c #6F8797",
";  c #6F8895",
":  c #6F8897",
">  c #708896",
",  c #708897",
"<  c #718997",
"1  c #718998",
"2  c #718A98",
"3  c #728B98",
"4  c #728A99",
"5  c #728B99",
"6  c #738B99",
"7  c #738C9A",
"8  c #748C99",
"9  c #748C9A",
"0  c #748D9A",
"q  c #758D9A",
"w  c #748D9B",
"e  c #758D9B",
"r  c #758E9B",
"t  c #768E9B",
"y  c #758D9C",
"u  c #758E9C",
"i  c #768E9C",
"p  c #768F9C",
"a  c #768E9D",
"s  c #768F9D",
"d  c #778F9E",
"f  c #77909C",
"g  c #77909D",
"h  c #77909E",
"j  c #78909D",
"k  c #78919D",
"l  c #78909E",
"z  c #78919E",
"x  c #78919F",
"c  c #79919F",
"v  c #79929E",
"b  c #79929F",
"n  c #7A939F",
"m  c #7992A0",
"M  c #7A93A0",
"N  c #7A94A1",
"B  c #7C95A3",
"V  c #7D96A2",
"C  c #7D96A3",
"Z  c #7E97A5",
"A  c #7F98A6",
"S  c #7F99A7",
"D  c #809AA8",
"F  c #819AA8",
"G  c #859EAD",
"H  c #86A0AE",
"J  c #88A2B0",
"K  c #8AA4B2",
"L  c #8CA6B5",
"P  c #8DA6B6",
"I  c #8EA7B7",
"U  c #8FA9B8",
"Y  c #91ABBB",
"T  c #93ADBD",
"R  c #93AEBD",
"E  c #94ADBE",
"W  c #9BB6C7",
"Q  c #9CB6C7",
"!  c #9EB8CA",
"~  c #9EB9CA",
"^  c #9FBACB",
"/  c #9FBACC",
"(  c #A1BCCD",
")  c #A2BCCE",
"_  c #A2BDCE",
"`  c #A4BED0",
"'  c #A5C1D2",
"]  c #A8C3D5",
"[  c #A9C4D6",
"{  c #AAC6D8",
"}  c #B2CDE2",
"|  c #B3CEE2",
" . c #B3CEE3",
".. c #B6D2E5",
"X. c #BBD6EA",
"o. c #BBD6EB",
"O. c #BBD7EB",
"+. c #BBD7EC",
"@. c #BCD8ED",
"#. c #BDD8ED",
"$. c #BDD9ED",
"%. c #BCD8EE",
"&. c #BED9EE",
"*. c #BEDAEF",
"=. c #BFDBF0",
"-. c #C0DBF0",
";. c None",
/* pixels */
";.;.;.;.;.;.;.;.;.;.;.;.;.;.;.;.;.;.;.;.;.;.;.;.;.;.;.;.;.;.;.;.;.;.;.;.;.;.;.;.;.;.;.;.;.;.;.;.;.;.;.;.;.;.;.;.;.;.;.;.;.;.;.;.",
";.;.;.=.=.=.=.=.=.=.=.=.=.=.=.=.=.=.=.=.=.=.=.=.=.=.=.=.=.=.=.=.=.=.=.=.=.=.=.=.=.=.=.=.=.=.=.=.=.=.=.=.=.=.=.=.=.=.=.=.=.;.;.;.",
";.;.=.=.=.=.=.=.=.=.=.=.=.=.=.=.=.=.=.=.=.=.=.=.=.=.=.=.=.=.=.=.=.=.=.=.=.=.=.=.=.=.=.=.=.=.=.=.=.=.=.=.=.=.=.=.=.=.=.=.=.=.;.;.",
";.-.=.=.=.=.=.=.=.=.=.=.=.=.=.=.=.=.=.=.=.=.=.=.=.=.=.=.=.=.=.=.=.=.=.=.=.=.=.=.=.=.=.=.=.=.=.=.=.=.=.=.=.=.=.=.=.=.=.=.=.=.=.;.",
";.=.=.=.=.=.=.=.=.=.=.=.=.=.=.=.=.=.=.=.=.=.=.=.=.=.=.=.=.=.=.=.=.=.=.=.=.=.=.=.=.=.=.=.=.=.=.=.=.=.=.=.=.=.=.=.=.=.=.=.=.=.=.;.",
";.=.=.=.=.=.=.=.=.=.=.=.=.=.=.=.=.=.=.=.=.=.=.=.=.=.=.=.=.=.=.=.=.=.=.=.=.=.=.=.=.=.=.=.=.=.=.=.=.=.=.=.=.=.=.=.=.=.=.=.=.=.=.;.",
";.=.=.=.=.=.=.=.=.=.=.=.=.=.=.=.=.=.=.=.=.=.=.=.=.=.=.=.=.=.=.=.=.=.=.=.=.=.=.=.=.=.=.=.=.=.=.=.=.=.=.=.=.=.=.=.=.=.=.=.=.=.=.;.",
";.=.=.=.=.=.=.=.=.=.=.=.=.=.=.=.=.=.=.=.=.=.=.=.=.=.=.=.=.=.=.=.=.=.=.=.=.=.=.=.=.=.=.=.=.=.=.=.=.=.=.=.=.=.=.=.=.=.=.=.=.=.=.;.",
";.=.=.=.=.=.=.=.=.=.=.=.=.=.=.=.=.=.=.=.=.=.=.=.=.=.=.=.=.=.=.=.=.=.=.=.=.=.=.=.=.=.=.=.=.=.=.=.=.=.=.=.=.=.=.=.=.=.=.=.=.=.=.;.",
";.=.=.=.=.=.=.=.=.=.=.=.=.=.=.=.=.=.=.=.=.=.=.=.=.=.=.=.=.=.=.=.=.=.=.=.=.=.=.=.=.=.=.=.=.=.=.=.=.=.=.=.=.=.=.=.=.=.=.=.=.=.=.;.",
";.=.=.=.=.=.=.=.=.=.=.=.=.=.=.=.=.=.=.=.=.=.=.=.=.=.=.=.=.=.=.=.=.=.=.=.=.=.=.=.=.=.=.=.=.=.=.=.=.=.=.=.=.=.=.=.=.=.=.=.=.=.=.;.",
";.=.=.=.=.=.=.=.=.=.=.=.=.=.=.=.=.=.=.=.=.=.=.=.=.=.=.=.=.=.=.=.=.=.=.=.=.=.=.=.=.=.=.=.=.=.=.=.=.=.=.=.=.=.=.=.=.=.=.=.=.=.=.;.",
";.*.=.=.=.=.=.=.=.=.=.=.=.=.=.=.=.=.=.=.=.=.=.=.=.=.=.=.=.=.=.=.=.=.=.=.=.=.=.=.=.=.=.=.=.=.=.=.=.=.=.=.=.=.=.=.=.=.=.=.=.=.*.;.",
";.} X.@.=.=.=.=.=.=.=.=.=.=.=.=.=.=.=.=.=.=.=.=.=.=.=.=.=.=.=.=.=.=.=.=.=.=.=.=.=.=.=.=.=.=.=.=.=.=.=.=.=.=.=.=.=.=.=.=.@.X.} ;.",
";.M M M Z H E _ ..=.=.=.=.=.=.=.=.=.=.=.=.=.=.=.=.=.=.=.=.=.=.=.=.=.=.=.=.=.=.=.=.=.=.=.=.=.=.=.=.=.=.=.=.=.=...) T H Z M M M ;.",
";.M M M M M M M M J ` %.=.=.=.=.=.=.=.=.=.=.=.=.=.=.=.=.=.=.=.=.=.=.=.=.=.=.=.=.=.=.=.=.=.=.=.=.=.=.=.=.&.] L M M M M M M M M ;.",
";.M M M M M M M M M M D / %.=.=.=.=.=.=.=.=.=.=.=.=.=.=.=.=.=.=.=.=.=.=.=.=.=.=.=.=.=.=.=.=.=.=.=.=.#.^ S M M M M M M M M M M ;.",
";.M M M M M M M M M M M M F ) %.=.=.=.=.=.=.=.=.=.=.=.=.=.=.=.=.=.=.=.=.=.=.=.=.=.=.=.=.=.=.=.=.%.( F M M M M M M M M M M M M ;.",
";.M M M M M M M M M M M M M M D ~ O.=.=.=.=.=.=.=.=.=.=.=.=.=.=.=.=.=.=.=.=.=.=.=.=.=.=.=.=.o.! S M M M M M M M M M M M M M M ;.",
";.M M M M M M M M M M M M M M M M B U ' +.=.=.=.=.=.=.=.=.=.=.=.=.=.=.=.=.=.=.=.=.=.=.%.{ R C M M M M M M M M M M M M M M M M ;.",
";.M M M M M M M M M M M M M M M M M M M V P Q [  .$.=.=.=.=.=.=.=.=.=.=.=.=.$.| [ W L V M M M M M M M M M M M M M M M M M M M ;.",
";.M M M M M M M M M M M M M M M M M M M M M M M M M A G K L I Y Y I L K G A M M M M M M M M M M M M M M M M M M M M M M M M M ;.",
";.M M M M M M M M M M M M M M M M M M M M M M M M M M M M M M M M M M M M M M M M M M M M M M M M M M M M M M M M M M M M M M ;.",
";.M M M M M M M M M M M M M M M M M M M M M M M M M M M M M M M M M M M M M M M M M M M M M M M M M M M M M M M M M M M M M M ;.",
";.M M M M M M M M M M M M M M M M M M M M M M M M M M M M M M M M M M M M M M M M M M M M M M M M M M M M M M M M M M M M M M ;.",
";.M M M M M M M M k u s M M M M M M M M M M M M M M M M M M M M M M M M M M M M M M M M M M M M M M M M M M M M M M M M M M M ;.",
";.M M M M M M M 1       & x M M M M M M M M M M M M M M M M M M M M M M M M M M M M M M M M M z a i h M M M M M M M M M M M M ;.",
";.M M M M M M r           < M M M M M M M M M M M M M M M M M M M M M M M M M M M M M M M g ;         & i M M M M M M M M M M ;.",
";.M M M M M M 9           ; M M M M M M M M M M M c h z M M M M M M M M M M M M M M M M i                 q M M M M M M M M M ;.",
";.M M M M M M z o         0 M M M M M M M M m 7 #       . 1 z M M M M M M M M M M M M n +                 . x M M M M M M M M ;.",
";.M M M M M M M j , # = r M M M M M M M M v $               . u M M M M M M M M M M M g                     r M M M M M M M M ;.",
";.M M M M M M M M M M M M M M M M M M M m $                   X g M M M M M M M M M M h                     u M M M M M M M M ;.",
";.M M M M M M M M M M M M M M M M M M M w                       : M M M M M M M M M M M $                 o b M M M M M M M M ;.",
";.M M M M M M M M M M M M M M M M M M M 1                       X M M M M M M M M M M M d .             X i M M M M M M M M M ;.",
";.M M M M M M M M M M M M M M M M M M M <                         M M M M M M M M M M M M z < .       , l M M M M M M M M M M ;.",
";.M M M M M M M M M M M M M M M M M M M 7                       % M M M M M M M M M M M M M M n z z m M M M M M M M M M M M M ;.",
";.M M M M M M M M M M M M M M M M M M M v o                     r M M M M M M M M M M M M M M M M M M M M M M M M M M M M M M ;.",
";.M M M M M M M M M M M M M M M M M M M M p                   4 M M M M M M M M M M M M M M M M M M M M M M M M M M M M M M M ;.",
";.M M M M M M M M M M M M M M M M M M M M M h >           $ y M M M M M M M M M M M M M M M M M M M M M M M M M M M M M M M M ;.",
";.M M M M M M M M M M M M M M M M M M M M M M M v u 7 e g M M M M M M M M M M M M M M M M M M M M M M M M M M M M M M M M M M ;.",
";.M M M M M M M M M M M M M M M M M M M M M M M M M M M M M M M M M M M M M M M M M M M M M M M M M M M M M M M M M M M M M M ;.",
";.M M M M M M M M M M M M M M M M M M M M M M M M M M M M M M M M M M M M M M M M M M M M M M M M M c a r g M M M M M M M M M ;.",
";.M M M M M M M M M M M M M M M M M M M M M M M M M M M M M M M M M M M M M M M M M M M M M M M n 4 X       $ f M M M M M M M ;.",
";.M M M M M M M M M M M M M n l f h m M M M M M M M M M M M M M M M M M M M M M M M M M M M M M 3             X z M M M M M M ;.",
";.M M M M M M M M M M n r = X         ; w n M M M M M M M M M M M M M M M M M M M M M M M M M M o               8 M M M M M M ;.",
";.M M M M M M M M M x ;                   & z M M M M M M M M M M M M M M M M M M M M M M M M M #               w M M M M M M ;.",
";.M M M M M M M M x #                       # z M M M M M M M M M M M M M M M M M M M M M M M M p             - m M M M M M M ;.",
";.M M M M M M M M >                           = M M M M M M M M M M M M M M M M M M M M M M M M M h < O X * 7 m M M M M M M M ;.",
";.M M M M M M M k                               s M M M M M M M M M M z 1 # X $ 6 b M M M M M M M M M M M M M M M M M M M M M ;.",
";.M M M M M M M e                               0 M M M M M M M M M h o           $ x M M M M M M M M M M M M M M M M M M M M ;.",
";.M M M M M M M 0                               8 M M M M M M M M M ,               5 M M M M M M M M M M M M M M M M M M M M ;.",
";.M M M M M M M s                               i M M M M M M M M M &               1 M M M M M M M M M M M M M M M M M M M M ;.",
";.M M M M M M M M $                           O M M M M M M M M M M 9             X f M M M M M M M M M M M M M M M M M M M M ;.",
";.M M M M M M M M f                           i M M M M M M M M M M M 8 X       @ t M M M M M M M M M M M M M M M M M M M M M ;.",
";.M M M M M M M M M u X                   X u M M M M M M M M M M M M M b s r g M M M M M M M M M M M M M M M M M M M M M M M ;.",
";.M M M M M M M M M M x 2               < z M M M M M M M M M M M M M M M M M M M M M M M M M M M M M M M M M M M M M M M M M ;.",
";.M M M M M M M M M M M M m i 7 6 0 u b M M M M M M M M M M M M M M M M M M M M M M M M M M M M M M M M M M M M M M M M M M M ;.",
";.M M M M M M M M M M M M M M M M M M M M M M M M M M M M M M M M M M M M M M M M M M M M M M M M M M M M M M M M M M M M M M ;.",
";.M M M M M M M M M M M M M M M M M M M M M M M M M M M M M M M M M M M M M M M M M M M M M M M M M M M M M M M M M M M M M M ;.",
";.M M M M M M M M M M M M M M M M M M M M M M M M M M M M M M M M M M M M M M M M M M M M M M M M M M M M M M M M M M M M M M ;.",
";.n M M M M M M M M M M M M M M M M M M M M M M M M M M M M M M M M M M M M M M M M M M M M M M M M M M M M M M M M M M M M N ;.",
";.;.M M M M M M M M M M M M M M M M M M M M M M M M M M M M M M M M M M M M M M M M M M M M M M M M M M M M M M M M M M M M ;.;.",
";.;.;.M M M M M M M M M M M M M M M M M M M M M M M M M M M M M M M M M M M M M M M M M M M M M M M M M M M M M M M M M M ;.;.;.",
";.;.;.;.;.;.;.;.;.;.;.;.;.;.;.;.;.;.;.;.;.;.;.;.;.;.;.;.;.;.;.;.;.;.;.;.;.;.;.;.;.;.;.;.;.;.;.;.;.;.;.;.;.;.;.;.;.;.;.;.;.;.;.;."
};
