/* XPM */
static char *result[] = {
/* columns rows colors chars-per-pixel */
"64 64 169 2 ",
"   c #543424",
".  c #543524",
"X  c #553524",
"o  c #543425",
"O  c #543525",
"+  c #553525",
"@  c #563525",
"#  c #543625",
"$  c #553625",
"%  c #543725",
"&  c #563625",
"*  c #573625",
"=  c #563526",
"-  c #563626",
";  c #573726",
":  c #583626",
">  c #583726",
",  c #593726",
"<  c #593727",
"1  c #553826",
"2  c #543827",
"3  c #543927",
"4  c #593827",
"5  c #5A3827",
"6  c #5A3927",
"7  c #5B3927",
"8  c #543B28",
"9  c #553B28",
"0  c #533C29",
"q  c #543C29",
"w  c #553D29",
"e  c #553D2A",
"r  c #543E2A",
"t  c #553F2A",
"y  c #5A3828",
"u  c #5A3928",
"i  c #5B3928",
"p  c #5B3A28",
"a  c #5C3928",
"s  c #5C3A28",
"d  c #5C3A29",
"f  c #5D3A29",
"g  c #5C3B29",
"h  c #5D3B29",
"j  c #5E3B2A",
"k  c #5D3C29",
"l  c #5E3C29",
"z  c #5E3C2A",
"x  c #5F3C2A",
"c  c #5F3D2A",
"v  c #5F3D2B",
"b  c #603D2B",
"n  c #613E2B",
"m  c #613F2B",
"M  c #623E2B",
"N  c #613D2C",
"B  c #623E2C",
"V  c #623F2C",
"C  c #633F2C",
"Z  c #633F2D",
"A  c #55432C",
"S  c #55432D",
"D  c #554830",
"F  c #554931",
"G  c #564D33",
"H  c #564F35",
"J  c #565437",
"K  c #565438",
"L  c #63402C",
"P  c #64402D",
"I  c #65402D",
"U  c #64412D",
"Y  c #65412D",
"T  c #64402E",
"R  c #65412E",
"E  c #66412E",
"W  c #66422E",
"Q  c #67422E",
"!  c #66422F",
"~  c #66432F",
"^  c #67432F",
"/  c #68432F",
"(  c #68442F",
")  c #684430",
"_  c #694430",
"`  c #694530",
"'  c #6A4430",
"]  c #6B4530",
"[  c #6A4531",
"{  c #6B4531",
"}  c #6B4630",
"|  c #6B4631",
" . c #6C4531",
".. c #6C4631",
"X. c #6D4731",
"o. c #6C4632",
"O. c #6D4632",
"+. c #6C4732",
"@. c #6D4732",
"#. c #586743",
"$. c #586D47",
"%. c #597048",
"&. c #587148",
"*. c #58744A",
"=. c #59754B",
"-. c #59774D",
";. c #59794E",
":. c #597A4F",
">. c #597C4F",
",. c #597C50",
"<. c #597D51",
"1. c #597E51",
"2. c #597E52",
"3. c #5A8254",
"4. c #5A8354",
"5. c #5A8454",
"6. c #5B8957",
"7. c #5B8A59",
"8. c #5A8B59",
"9. c #5B8C59",
"0. c #5A8D59",
"q. c #5B8C5A",
"w. c #5B915C",
"e. c #5B925D",
"r. c #5B935D",
"t. c #5B945E",
"y. c #5C955E",
"u. c #5B9760",
"i. c #5C9960",
"p. c #5C9B63",
"a. c #5C9E64",
"s. c #5CA165",
"d. c #5CA066",
"f. c #5CA669",
"g. c #5DA76A",
"h. c #5CA96A",
"j. c #5DA96B",
"k. c #5DAA6C",
"l. c #5DAB6C",
"z. c #5CAC6C",
"x. c #5CAC6D",
"c. c #5DAD6D",
"v. c #5EAF6F",
"b. c #5EB16F",
"n. c #5EB371",
"m. c #5DB572",
"M. c #5EB672",
"N. c #5EB874",
"B. c #5EB974",
"V. c #5EB875",
"C. c #5EBA75",
"Z. c #5EBB75",
"A. c #5EBB76",
"S. c #5DBC76",
"D. c #5EBC77",
"F. c #5EBE77",
"G. c #5FBF78",
"H. c #5FC27A",
"J. c #5FC37A",
"K. c #5FC37B",
"L. c #5FC47B",
"P. c #5FC57C",
"I. c #5FC67C",
"U. c #5FC67D",
"Y. c #5FC77D",
"T. c #5FC77E",
"R. c #5FC87D",
"E. c #60C77D",
"W. c None",
/* pixels */
"W.W.W.W.W.W.W.W.W.W.W.W.W.W.W.W.W.W.W.W.W.W.W.W.W.W.W.W.W.W.W.W.W.W.W.W.W.W.W.W.W.W.W.W.W.W.W.W.W.W.W.W.W.W.W.W.W.W.W.W.W.W.W.W.",
"W.W.W.E.Y.Y.Y.Y.Y.Y.Y.Y.Y.Y.Y.Y.Y.Y.Y.Y.Y.Y.Y.Y.Y.Y.Y.Y.Y.Y.Y.Y.Y.Y.Y.Y.Y.Y.Y.Y.Y.Y.Y.Y.Y.Y.Y.Y.Y.Y.Y.Y.Y.Y.Y.Y.Y.Y.Y.Y.T.W.W.W.",
"W.W.Y.Y.Y.Y.Y.Y.Y.Y.Y.Y.Y.Y.Y.Y.Y.Y.Y.Y.Y.Y.Y.Y.Y.Y.Y.Y.Y.Y.Y.Y.Y.Y.Y.Y.Y.Y.Y.Y.Y.Y.Y.Y.Y.Y.Y.Y.Y.Y.Y.Y.Y.Y.Y.Y.Y.Y.Y.Y.Y.Y.W.W.",
"W.T.Y.Y.Y.Y.Y.Y.Y.Y.Y.Y.Y.Y.Y.Y.Y.Y.Y.Y.Y.Y.Y.Y.Y.Y.Y.Y.Y.Y.Y.Y.Y.Y.Y.Y.Y.Y.Y.Y.Y.Y.Y.Y.Y.Y.Y.Y.Y.Y.Y.Y.Y.Y.Y.Y.Y.Y.Y.Y.Y.Y.R.W.",
"W.Y.Y.Y.Y.Y.Y.Y.Y.Y.Y.Y.Y.Y.Y.Y.Y.Y.Y.Y.Y.Y.Y.Y.Y.Y.Y.Y.Y.Y.Y.Y.Y.Y.Y.Y.Y.Y.Y.Y.Y.Y.Y.Y.Y.Y.Y.Y.Y.Y.Y.Y.Y.Y.Y.Y.Y.Y.Y.Y.Y.Y.Y.W.",
"W.Y.Y.Y.Y.Y.Y.Y.Y.Y.Y.Y.Y.Y.Y.Y.Y.Y.Y.Y.Y.Y.Y.Y.Y.Y.Y.Y.Y.Y.Y.Y.Y.Y.Y.Y.Y.Y.Y.Y.Y.Y.Y.Y.Y.Y.Y.Y.Y.Y.Y.Y.Y.Y.Y.Y.Y.Y.Y.Y.Y.Y.Y.W.",
"W.Y.Y.Y.Y.Y.Y.Y.Y.Y.Y.Y.Y.Y.Y.Y.Y.Y.Y.Y.Y.Y.Y.Y.Y.Y.Y.Y.Y.Y.Y.Y.Y.Y.Y.Y.Y.Y.Y.Y.Y.Y.Y.Y.Y.Y.Y.Y.Y.Y.Y.Y.Y.Y.Y.Y.Y.Y.Y.Y.Y.Y.Y.W.",
"W.Y.Y.Y.Y.Y.Y.Y.Y.Y.Y.Y.Y.Y.Y.Y.Y.Y.Y.Y.Y.Y.Y.Y.Y.Y.Y.Y.Y.Y.Y.Y.Y.Y.Y.Y.Y.Y.Y.Y.Y.Y.Y.Y.Y.Y.Y.Y.Y.Y.Y.Y.Y.Y.Y.Y.Y.Y.Y.Y.Y.Y.Y.W.",
"W.L.Y.Y.Y.Y.Y.Y.Y.Y.Y.Y.Y.Y.Y.Y.Y.Y.Y.Y.Y.Y.Y.Y.Y.Y.Y.Y.Y.Y.Y.Y.Y.Y.Y.Y.Y.Y.Y.Y.Y.Y.Y.Y.Y.Y.Y.Y.Y.Y.Y.Y.Y.Y.Y.Y.Y.Y.Y.Y.Y.Y.L.W.",
"W.F.Y.Y.Y.Y.Y.Y.Y.Y.Y.Y.Y.n.w.y.A.Y.Y.Y.Y.Y.Y.Y.Y.Y.Y.Y.Y.Y.m.e.t.V.Y.Y.Y.Y.Y.Y.Y.Y.Y.Y.Y.Y.Y.N.t.e.M.Y.Y.Y.Y.Y.Y.Y.Y.Y.Y.Y.F.W.",
"W.F.Y.Y.Y.Y.Y.Y.Y.Y.Y.K.$.#     2 9.Y.Y.Y.Y.Y.Y.Y.Y.Y.Y.I.*.O     % 5.Y.Y.Y.Y.Y.Y.Y.Y.Y.Y.U.>.%     O ,.P.Y.Y.Y.Y.Y.Y.Y.Y.Y.F.W.",
"W.F.Y.Y.Y.Y.Y.Y.Y.Y.Y.&.            r.Y.Y.Y.Y.Y.Y.Y.Y.Y.:.            6.Y.Y.Y.Y.Y.Y.Y.Y.Y.5.            2.Y.Y.Y.Y.Y.Y.Y.Y.Y.F.W.",
"W.F.Y.Y.Y.Y.Y.Y.Y.Y.V.#             S P.Y.Y.Y.Y.Y.Y.Y.G.2             e H.Y.Y.Y.Y.Y.Y.Y.K.r             3 D.Y.Y.Y.Y.Y.Y.Y.Y.F.W.",
"W.F.Y.Y.Y.Y.Y.Y.Y.Y.p.                b.Y.Y.Y.Y.Y.Y.Y.f.                g.Y.Y.Y.Y.Y.Y.Y.v.                a.Y.Y.Y.Y.Y.Y.Y.Y.F.W.",
"W.S.Y.Y.Y.Y.Y.Y.Y.Y.t.                j.Y.Y.Y.Y.Y.Y.Y.d.                d.Y.Y.Y.Y.Y.Y.Y.j.                t.Y.Y.Y.Y.Y.Y.Y.Y.Z.W.",
"W.z.Y.Y.Y.Y.Y.Y.Y.Y.3.                d.Y.Y.Y.Y.Y.Y.Y.t.                u.Y.Y.Y.Y.Y.Y.Y.a.                4.Y.Y.Y.Y.Y.Y.Y.Y.k.W.",
"W.1.Y.Y.Y.Y.Y.Y.Y.Y.J                 ;.Y.Y.Y.Y.Y.Y.Y.#.                %.Y.Y.Y.Y.Y.Y.Y.&.                K Y.Y.Y.Y.Y.Y.Y.Y.<.W.",
"W.0 c.Y.Y.Y.Y.Y.Y.8.                  9 b.Y.Y.Y.Y.Y.s..                 1 l.Y.Y.Y.Y.Y.h.#                   0.Y.Y.Y.Y.Y.Y.x.q W.",
"W.. r 0.J.Y.Y.B.=.#                     A i.U.Y.K.7.2                     t r.I.Y.I.w.8                     O -.C.Y.Y.H.q.e . W.",
"W..     2 G D .                             e H 9                             q H w                             # F G 2     . W.",
"W..                                                                                                                         . W.",
"W..                                                                                                                         . W.",
"W..                                                                                                                         . W.",
"W..                                                                                                                         . W.",
"W..                                                                                                                         . W.",
"W.+             ; a h k s < o                           o < d h j d > o                           + 5 g k h a :             + W.",
"W.+       > N ' @.@.@.@.@.@.o.U i X               . u V { @.@.@.@.@.@.] V 5                 X p T o.@.@.@.@.@.@.' n >       + W.",
"W.d h B ) @.@.@.@.@.@.@.@.@.@.@.@.| L x g 7 s j C ] @.@.@.@.@.@.@.@.@.@.@.@.' C z d 7 g c P  .@.@.@.@.@.@.@.@.@.@.@.@./ B j d W.",
"W.@.@.@.@.@.@.@.@.@.@.@.@.@.@.@.@.@.@.@.@.@.@.@.@.@.@.@.@.@.@.@.@.@.@.@.@.@.@.@.@.@.@.@.@.@.@.@.@.@.@.@.@.@.@.@.@.@.@.@.@.@.@.W.",
"W.@.@.@.@.@.@.@.@.@.@.@.@.@.@.@.@.@.@.@.@.@.@.@.@.@.@.@.@.@.@.@.@.@.@.@.@.@.@.@.@.@.@.@.@.@.@.@.@.@.@.@.@.@.@.@.@.@.@.@.@.@.@.W.",
"W.@.@.@.@.@.@.@.@.@.@.@.@.@.@.@.@.@.@.@.@.@.@.@.@.@.@.@.@.@.@.@.@.@.@.@.@.@.@.@.@.@.@.@.@.@.@.@.@.@.@.@.@.@.@.@.@.@.@.@.@.@.@.W.",
"W.@.@.@.@.@.@.@.@.@.@.@.@.@.@.@.@.@.@.@.@.@.@.@.@.@.@.@.@.@.@.@.@.@.@.@.@.@.@.@.@.@.@.@.@.@.@.@.@.@.@.@.@.@.@.@.@.@.@.@.@.@.@.W.",
"W.@.@.@.@.@.@.@.@.@.@.@.@.@.@.@.@.@.@.@.@.@.@.@.@.@.@.@...z & - v o.@.@.@.@.@.@.@.@.@.@.@.@.@.@.@.@.@.@.@.@.@.@.@.@.@.@.@.@.@.W.",
"W.@.@.@.@.@.@.@.@.@.@.@.@.@.@.@.@.@.@.@.@.@.@.@.@.@.@.@.i         x @.@.@.@.@.@.@.@.@.@.@.@.@.@.@.@.@.@.@.@.@.@.@.@.@.@.@.@.@.W.",
"W.@.@.@.@.@.@.@.@.@.@.@.@.@.@.@.@.@.@.@.@.@.@.@.@.@.@.`           X o.@.@.@.@.@.@.@.@.@.@.@.@.@.@.@.@.@.@.@.@.@.@.@.@.@.@.@.@.W.",
"W.@.@.@.@.@.@.@.@.@.o.M i f Q @.@.@.@.@.@.@.@.@.@.@.@./              .@.@.@.@.@.@.@.@.@.@.@.@.@.W h 6 i C o.@.@.@.@.@.@.@.@.@.W.",
"W.@.@.@.@.@.@.@.@.@.p       . E @.@.@.@.@.@.@.@.@.@.@.o.-         5 @.@.@.@.@.@.@.@.@.@.@.@.@.z           , } @.@.@.@.@.@.@.@.W.",
"W.@.@.@.@.@.@.@.@.^           , @.@.@.@.@.@.@.@.@.@.@.@.W @     * ( @.@.@.@.@.@.@.@.@.@.@.@.Z               7 @.@.@.@.@.@.@.@.W.",
"W.@.@.@.@.@.@.@.@.P           + @.@.@.@.@.@.@.@.@.@.@.@.@.| R W o.@.@.@.@.@.@.@.@.@.@.@.@.@.*                 / @.@.@.@.@.@.@.W.",
"W.@.@.@.@.@.@.@.@._ .         i @.@.@.@.@.@.@.@.@.@.@.@.@.@.@.@.@.@.@.@.@.@.@.@.@.@.@.@.@.{                   C @.@.@.@.@.@.@.W.",
"W.@.@.@.@.@.@.@.@.@.b       $ ) @.@.@.@.@.@.@.@.@.@.@.@.@.@.@.@.@.@.@.@.@.@.@.@.@.@.@.@.@.{                   C @.@.@.@.@.@.@.W.",
"W.@.@.@.@.@.@.@.@.@.@.W c B { @.@.@.@.@.@.@.@.@.@.@.@.@.@.@.@.@.@.@.@.@.@.@.@.@.@.@.@.@.@.@.:                 / @.@.@.@.@.@.@.W.",
"W.@.@.@.@.@.@.@.@.@.@.@.@.@.@.@.@.@.@.@.@.@.@.@.@.@.@.@.@.@.@.@.@.@.@.@.@.@.@.@.@.@.@.@.@.@.L               p @.@.@.@.@.@.@.@.W.",
"W.@.@.@.@.@.@.@.@.@.@.@.@.@.@.@.@.@.@.@.@.@.@.@.@.@.@.@.@.@.@.@.@.@.@.@.@.@.@.@.@.@.@.@.@.@.@.z           4 { @.@.@.@.@.@.@.@.W.",
"W.@.@.@.@.@.@.@.@.@.@.@.@.@.@.@.@.@.@.@.@.@.@.@.@.@.@.@.@.@.@.@.@.@.@.@.@.@.@.@.@.@.@.@.@.@.@.@.W h 4 a Z o.@.@.@.@.@.@.@.@.@.W.",
"W.@.@.@.@.@.@.@.@.@.@.@.@.@.@.@.@.@.@.@.O.[ | @.@.@.@.@.@.@.@.@.@.@.@.@.@.@.@.@.@.@.@.@.@.@.@.@.@.@.@.@.@.@.@.@.@.@.@.@.@.@.@.W.",
"W.@.@.@.@.@.@.@.@.@.@.@.@.@.@.@.@.@.+.N =     4 Y @.@.@.@.@.@.@.@.@.@.@.@.@.@.@.@.@.@.@.@.@.@.@.@.@.@.@.@.@.@.@.@.@.@.@.@.@.@.W.",
"W.@.@.@.@.@.@.@.@.@.@.@.@.@.@.@.@.X.a             C @.@.@.@.@.@.@.@.@.@.@.@.@.@.@.@.@.@.@.@.@.@.@.@.@.@.@.@.@.@.@.@.@.@.@.@.@.W.",
"W.@.@.@.@.@.@.@.@.@.@.@.@.@.@.@.@.L                 ' @.@.@.@.@.@.@.@.@.@.W u X X i ! @.@.@.@.@.@.@.@.@.@.@.@.@.@.@.@.@.@.@.@.W.",
"W.@.@.@.@.@.@.@.@.@.@.@.@.@.@.@.@.y                 n @.@.@.@.@.@.@.@.@.M             V @.@.@.@.@.@.@.@.@.@.@.@.@.@.@.@.@.@.@.W.",
"W.@.@.@.@.@.@.@.@.@.@.@.@.@.@.@.@.-                 h @.@.@.@.@.@.@.@./ .             . / @.@.@.@.@.@.@.@.@.@.@.@.@.@.@.@.@.@.W.",
"W.@.@.@.@.@.@.@.@.@.@.@.@.@.@.@.@.>                 z @.@.@.@.@.@.@.@.j                 l @.@.@.@.@.@.@.@.@.@.@.@.@.@.@.@.@.@.W.",
"W.@.@.@.@.@.@.@.@.@.@.@.@.@.@.@.@.c                 Q @.@.@.@.@.@.@.@.y                 u @.@.@.@.@.@.@.@.@.@.@.@.@.@.@.@.@.@.W.",
"W.@.@.@.@.@.@.@.@.@.@.@.@.@.@.@.@.{ *             a @.@.@.@.@.@.@.@.@.i                 p @.@.@.@.@.@.@.@.@.@.@.@.@.@.@.@.@.@.W.",
"W.@.@.@.@.@.@.@.@.@.@.@.@.@.@.@.@.@.' 4         h o.@.@.@.@.@.@.@.@.@.B                 m @.@.@.@.@.@.@.@.@.@.@.@.@.@.@.@.@.@.W.",
"W.@.@.@.@.@.@.@.@.@.@.@.@.@.@.@.@.@.@.O.~ V L _ @.@.@.@.@.@.@.@.@.@.@...;             * | @.@.@.@.@.@.@.@.@.@.@.@.@.@.@.@.@.@.W.",
"W.@.@.@.@.@.@.@.@.@.@.@.@.@.@.@.@.@.@.@.@.@.@.@.@.@.@.@.@.@.@.@.@.@.@.@._ >         > _ @.@.@.@.@.@.@.@.@.@.@.@.@.@.@.@.@.@.@.W.",
"W.@.@.@.@.@.@.@.@.@.@.@.@.@.@.@.@.@.@.@.@.@.@.@.@.@.@.@.@.@.@.@.@.@.@.@.@.@.I c c R @.@.@.@.@.@.@.@.@.@.@.@.@.@.@.@.@.@.@.@.@.W.",
"W.@.@.@.@.@.@.@.@.@.@.@.@.@.@.@.@.@.@.@.@.@.@.@.@.@.@.@.@.@.@.@.@.@.@.@.@.@.@.@.@.@.@.@.@.@.@.@.@.@.@.@.@.@.@.@.@.@.@.@.@.@.@.W.",
"W.@.@.@.@.@.@.@.@.@.@.@.@.@.@.@.@.@.@.@.@.@.@.@.@.@.@.@.@.@.@.@.@.@.@.@.@.@.@.@.@.@.@.@.@.@.@.@.@.@.@.@.@.@.@.@.@.@.@.@.@.@.@.W.",
"W.+.@.@.@.@.@.@.@.@.@.@.@.@.@.@.@.@.@.@.@.@.@.@.@.@.@.@.@.@.@.@.@.@.@.@.@.@.@.@.@.@.@.@.@.@.@.@.@.@.@.@.@.@.@.@.@.@.@.@.@.@.@.W.",
"W.W.@.@.@.@.@.@.@.@.@.@.@.@.@.@.@.@.@.@.@.@.@.@.@.@.@.@.@.@.@.@.@.@.@.@.@.@.@.@.@.@.@.@.@.@.@.@.@.@.@.@.@.@.@.@.@.@.@.@.@.@.W.W.",
"W.W.W.@.@.@.@.@.@.@.@.@.@.@.@.@.@.@.@.@.@.@.@.@.@.@.@.@.@.@.@.@.@.@.@.@.@.@.@.@.@.@.@.@.@.@.@.@.@.@.@.@.@.@.@.@.@.@.@.@.@.W.W.W.",
"W.W.W.W.W.W.W.W.W.W.W.W.W.W.W.W.W.W.W.W.W.W.W.W.W.W.W.W.W.W.W.W.W.W.W.W.W.W.W.W.W.W.W.W.W.W.W.W.W.W.W.W.W.W.W.W.W.W.W.W.W.W.W.W."
};
