/* XPM */
static char *result[] = {
/* columns rows colors chars-per-pixel */
"64 64 64 1 ",
"  c #D3255F",
". c #D12460",
"X c #FF4E4B",
"o c #FF4C4C",
"O c #FF4F4C",
"+ c #F34251",
"@ c #F44251",
"# c #FF7A49",
"$ c #FF7B49",
"% c #C4667E",
"& c #00CE66",
"* c #00C16D",
"= c #00C26D",
"- c #76D34B",
"; c #77D34B",
": c #79D34B",
"> c #7CD34B",
", c #7FD34A",
"< c #FD8F01",
"1 c #FD9101",
"2 c #FBB200",
"3 c #FCB300",
"4 c #FBBD00",
"5 c #FBBE02",
"6 c #FCD123",
"7 c #FCD224",
"8 c #FDD82E",
"9 c #8AA755",
"0 c #8CA755",
"q c #83A956",
"w c #80AB57",
"e c #81AB57",
"r c #82AB56",
"t c #9DA253",
"y c #9EA253",
"u c #BEB14E",
"i c #B9AD53",
"p c #B0AC5F",
"a c #ADAC62",
"s c #A6AA6B",
"d c #A4A96E",
"f c #A9AA68",
"g c #A2A870",
"h c #A2A971",
"j c #A0A872",
"k c #FF8848",
"l c #81D349",
"z c #86D449",
"x c #93D546",
"c c #9CD343",
"v c #3E6DCA",
"b c #3F6FCC",
"n c #BF6682",
"m c #B26A8B",
"M c #B36A8B",
"N c #AB6E91",
"B c #A96D93",
"V c #A96E93",
"C c #AC6C90",
"Z c #009C83",
"A c #009A85",
"S c #448BDE",
"D c #458BDE",
"F c #4694E4",
/* pixels */
"x88888888888888888888888888888884444444444444444444444444444444i",
"&l888888888888888888888888888888444444444444444444444444444444aF",
"&&:8888888888888888888888888888844444444444444444444444444444sFF",
"&&&-88888888888888888888888888884444444444444444444444444444gFFF",
"&&&&-888888888888888888888888888444444444444444444444444444jFFFF",
"&&&&&-8888888888888888888888888844444444444444444444444444jFFFFF",
"&&&&&&-88888888888888888888888884444444444444444444444444jFFFFFF",
"&&&&&&&-888888888888888888888888444444444444444444444444jFFFFFFF",
"&&&&&&&&-88888888887544444444444<<<<<<<<<<<124444444444jFFFFFFFF",
"&&&&&&&&&-8888888888754444444444<<<<<<<<<<124444444444jFFFFFFFFF",
"&&&&&&&&&&-888888888875444444444<<<<<<<<<124444444444jFFFFFFFFFF",
"&&&&&&&&&&&-88888888887544444444<<<<<<<<124444444444jFFFFFFFFFFF",
"&&&&&&&&&&&&-8888888888754444444<<<<<<<124444444444jFFFFFFFFFFFF",
"&&&&&&&&&&&&&,888888888865444444<<<<<<124444444444jFFFFFFFFFFFFF",
"&&&&&&&&&&&&&&-88888888887544444<<<<<124444444444jFFFFFFFFFFFFFF",
"&&&&&&&&&&&&&&&-8888888888754444<<<<124444444444jFFFFFFFFFFFFFFF",
"&&&&&&&&&&&&&&&&-888888888875444<<<124444444444jFFFFFFFFFFFFFFFF",
"&&&&&&&&&&&&&&&&&-88888888887544<<124444444444jFFFFFFFFFFFFFFFFF",
"&&&&&&&&&&&&&&&&&&-8888888888754<124444444444jFFFFFFFFFFFFFFFFFF",
"&&&&&&&&=&&&&&&&&&&-888888888875124444444444jFFFFFFFFFFDFFFFFFFF",
"&&&&&&&&Z*&&&&&&&&&&-8888888888634444444444jFFFFFFFFFFSbFFFFFFFF",
"&&&&&&&&AZ*&&&&&&&&&&-88888888884444444444jFFFFFFFFFFSbvFFFFFFFF",
"&&&&&&&&AAZ*&&&&&&&&&&-888888888444444444jFFFFFFFFFFSbvvFFFFFFFF",
"&&&&&&&&AAAZ*&&&&&&&&&&-8888888844444444jFFFFFFFFFFSbvvvFFFFFFFF",
"&&&&&&&&AAAAZ*&&&&&&&&&&-88888884444444jFFFFFFFFFFSbvvvvFFFFFFFF",
"&&&&&&&&AAAAAZ*&&&&&&&&&&-888888444444jFFFFFFFFFFSbvvvvvFFFFFFFF",
"&&&&&&&&AAAAAAZ*&&&&&&&&&&-8888844444jFFFFFFFFFFSbvvvvvvFFFFFFFF",
"&&&&&&&&AAAAAAAZ*&&&&&&&&&&-88884444hFFFFFFFFFFSbvvvvvvvFFFFFFFF",
"&&&&&&&&AAAAAAAAZ*&&&&&&&&&&;888444dFFFFFFFFFFSbvvvvvvvvFFFFFFFF",
"&&&&&&&&AAAAAAAAAZ*&&&&&&&&&&>8844fFFFFFFFFFFSbvvvvvvvvvFFFFFFFF",
"&&&&&&&&AAAAAAAAAAZ*&&&&&&&&&&z84pFFFFFFFFFFSbvvvvvvvvvvFFFFFFFF",
"&&&&&&&&AAAAAAAAAAAZ*&&&&&&&&&&cuFFFFFFFFFFSbvvvvvvvvvvvFFFFFFFF",
"&&&&&&&&AAAAAAAAAAAZ*&&&&&&&&&&y%FFFFFFFFFFSbvvvvvvvvvvvFFFFFFFF",
"&&&&&&&&AAAAAAAAAAZ*&&&&&&&&&&0koMFFFFFFFFFFSbvvvvvvvvvvFFFFFFFF",
"&&&&&&&&AAAAAAAAAZ*&&&&&&&&&&qkkooCFFFFFFFFFFSbvvvvvvvvvFFFFFFFF",
"&&&&&&&&AAAAAAAAZ*&&&&&&&&&&ekkkoooBFFFFFFFFFFSbvvvvvvvvFFFFFFFF",
"&&&&&&&&AAAAAAAZ*&&&&&&&&&&wkkkkooooVFFFFFFFFFFSbvvvvvvvFFFFFFFF",
"&&&&&&&&AAAAAAZ*&&&&&&&&&&wkkkkkoooooVFFFFFFFFFFSbvvvvvvFFFFFFFF",
"&&&&&&&&AAAAAZ*&&&&&&&&&&wkkkkkkooooooVFFFFFFFFFFSbvvvvvFFFFFFFF",
"&&&&&&&&AAAAZ*&&&&&&&&&&wkkkkkkkoooooooVFFFFFFFFFFSbvvvvFFFFFFFF",
"&&&&&&&&AAAZ*&&&&&&&&&&wkkkkkkkkooooooooVFFFFFFFFFFSbvvvFFFFFFFF",
"&&&&&&&&AAZ*&&&&&&&&&&wkkkkkkkkkoooooooooVFFFFFFFFFFSbvvFFFFFFFF",
"&&&&&&&&AZ*&&&&&&&&&&wkkkkkkkkkkooooooooooVFFFFFFFFFFSbvFFFFFFFF",
"&&&&&&&&Z*&&&&&&&&&&wkkkkkkkkkk#@ooooooooooVFFFFFFFFFFSbFFFFFFFF",
"&&&&&&&&=&&&&&&&&&&wkkkkkkkkkk$O +ooooooooooVFFFFFFFFFFDFFFFFFFF",
"&&&&&&&&&&&&&&&&&&wkkkkkkkkkk$Oo. +ooooooooooVFFFFFFFFFFFFFFFFFF",
"&&&&&&&&&&&&&&&&&wkkkkkkkkkk$Ooo.. +ooooooooooVFFFFFFFFFFFFFFFFF",
"&&&&&&&&&&&&&&&&wkkkkkkkkkk$Oooo... +ooooooooooVFFFFFFFFFFFFFFFF",
"&&&&&&&&&&&&&&&wkkkkkkkkkk$Ooooo.... +ooooooooooVFFFFFFFFFFFFFFF",
"&&&&&&&&&&&&&&wkkkkkkkkkk$Oooooo..... +ooooooooooVFFFFFFFFFFFFFF",
"&&&&&&&&&&&&&wkkkkkkkkkk$Ooooooo...... +ooooooooooVFFFFFFFFFFFFF",
"&&&&&&&&&&&&wkkkkkkkkkk#Xooooooo....... +ooooooooooVFFFFFFFFFFFF",
"&&&&&&&&&&&wkkkkkkkkkk$Ooooooooo........ +ooooooooooVFFFFFFFFFFF",
"&&&&&&&&&&wkkkkkkkkkk$Oooooooooo......... +ooooooooooVFFFFFFFFFF",
"&&&&&&&&&wkkkkkkkkkk$Ooooooooooo.......... +ooooooooooVFFFFFFFFF",
"&&&&&&&&wkkkkkkkkkk$Oooooooooooo........... +ooooooooooVFFFFFFFF",
"&&&&&&&wkkkkkkkkkkkkkkkkkkkkkkkkooooooooooooooooooooooooVFFFFFFF",
"&&&&&&wkkkkkkkkkkkkkkkkkkkkkkkkkoooooooooooooooooooooooooVFFFFFF",
"&&&&&wkkkkkkkkkkkkkkkkkkkkkkkkkkooooooooooooooooooooooooooVFFFFF",
"&&&&wkkkkkkkkkkkkkkkkkkkkkkkkkkkoooooooooooooooooooooooooooVFFFF",
"&&&wkkkkkkkkkkkkkkkkkkkkkkkkkkkkooooooooooooooooooooooooooooVFFF",
"&&rkkkkkkkkkkkkkkkkkkkkkkkkkkkkkoooooooooooooooooooooooooooooNFF",
"&9kkkkkkkkkkkkkkkkkkkkkkkkkkkkkkoooooooooooooooooooooooooooooomF",
"tkkkkkkkkkkkkkkkkkkkkkkkkkkkkkkkooooooooooooooooooooooooooooooon"
};
