/* XPM */
static char *result[] = {
/* columns rows colors chars-per-pixel */
"64 64 125 2 ",
"   c #662852",
".  c #692B54",
"X  c #6A2F58",
"o  c #6E3056",
"O  c #6D335B",
"+  c #713357",
"@  c #753658",
"#  c #70385F",
"$  c #7A3C5A",
"%  c #723A61",
"&  c #7F405C",
"*  c #83445E",
"=  c #864760",
"-  c #8C4D62",
";  c #925464",
":  c #965865",
">  c #9A5D67",
",  c #915569",
"<  c #955B6E",
"1  c #835576",
"2  c #86597A",
"3  c #895F7D",
"4  c #9E6268",
"5  c #8A617F",
"6  c #A16569",
"7  c #A66B6B",
"8  c #1F3399",
"9  c #2E41A0",
"0  c #3547A3",
"q  c #4255A9",
"w  c #4658AA",
"e  c #4C5EAD",
"r  c #5364B0",
"t  c #6171B7",
"y  c #6E7EBC",
"u  c #2944CC",
"i  c #3952CF",
"p  c #3D55D0",
"a  c #2E6BE6",
"s  c #3E75E7",
"d  c #4D64D3",
"f  c #5165D3",
"g  c #546AD5",
"h  c #596DD6",
"j  c #5E70D7",
"k  c #6C7EDA",
"l  c #457BE8",
"z  c #8B6280",
"x  c #96748F",
"c  c #997792",
"v  c #9C7D95",
"b  c #A67384",
"n  c #A97787",
"m  c #AD7D8C",
"M  c #7287DB",
"N  c #7C89DC",
"B  c #5685E9",
"V  c #5887E9",
"C  c #5B89E9",
"Z  c #628DE9",
"A  c #7499EB",
"S  c #A4899F",
"D  c #B58895",
"F  c #BA8F9C",
"G  c #BA919E",
"H  c #A58AA1",
"J  c #A88FA5",
"K  c #AA91A6",
"L  c #BE96A2",
"P  c #BF98A4",
"I  c #B6A5B6",
"U  c #C49FA9",
"Y  c #C5A0AB",
"T  c #C8A5AF",
"R  c #CDACB5",
"E  c #D4B6BE",
"W  c #8E9DCB",
"Q  c #B2BEDA",
"!  c #989FE0",
"~  c #81A2EC",
"^  c #91A3E1",
"/  c #9FB6EF",
"(  c #A1B7EF",
")  c #C4BBC7",
"_  c #C6BECA",
"`  c #B4C2E7",
"'  c #B3C1E8",
"]  c #CFC6CD",
"[  c #D1CFD8",
"{  c #D5D6DD",
"}  c #E0C7CA",
"|  c #E0C9CE",
" . c #E2CBD1",
".. c #E7D1D1",
"X. c #E9D3D3",
"o. c #EDDADE",
"O. c #C2CDE1",
"+. c #C4C5EA",
"@. c #CBD7E6",
"#. c #C3D0EA",
"$. c #CDDAED",
"%. c #DADDE3",
"&. c #D5D3ED",
"*. c #D1DCEB",
"=. c #C5CFF1",
"-. c #C7D1F1",
";. c #D4D9F2",
":. c #D8DBF2",
">. c #EFDEE0",
",. c #F0DEE1",
"<. c #E4DFF0",
"1. c #D8E3EC",
"2. c #DAE6F0",
"3. c #E0E5E9",
"4. c #E2E9EC",
"5. c #F2E1E3",
"6. c #F5E6E8",
"7. c #FAEEEE",
"8. c #E5E1F1",
"9. c #EAE7F3",
"0. c #E4EEF1",
"q. c #EFE9F2",
"w. c #F2ECF4",
"e. c #E6F0F2",
"r. c #FFF5F5",
/* pixels */
"r.r.r.r.r.r.r.r.r.r.r.r.r.r.r.r.r.r.r.r.r.r.r.r.r.r.r.r.r.r.r.r.e.e.e.e.e.e.e.e.e.e.e.e.e.e.e.e.e.e.e.e.e.e.e.e.e.e.e.e.e.e.e.e.",
"r.r.r.r.r.r.r.r.r.r.r.r.r.r.r.r.r.r.r.r.r.r.r.r.r.r.r.r.r.r.r.r.e.e.e.e.e.e.e.e.e.e.e.e.e.e.e.e.e.e.e.e.e.e.e.e.e.e.e.e.e.e.e.e.",
"r.r.r.r.r.r.r.r.r.r.r.r.r.r.r.r.r.r.r.r.r.r.r.r.r.r.r.r.r.r.r.r.e.e.e.e.e.e.e.e.e.e.e.e.e.e.e.e.e.e.e.e.e.e.e.e.e.e.e.e.e.e.e.e.",
"r.r.r.7.....} | ]  .| | | | | |  .| |  .| | | | | | | | | | 7.r.e.4.) ) ) ) ) ) ) ) ) ) ) ) ) ) ) ) ) ) ) ) ) ) ) ) ] ] 1.e.e.e.",
"r.r.r.X.7 7 7 ; - - - - - - - - - - - - - - - - - - - - - - 5.r.0.{                                             @ * - - ] e.e.e.",
"r.r.r.X.7 7 7 7 ; - - - - - - - - - - - - - - - - - - - - - 5.r.0.%.                                          o * - - ; ] e.e.e.",
"r.r.r.} 7 7 7 7 7 ; - - - - - - - - - > - - - - - - - - - - ,.r.0.%.                  . $ .                 o = ; - ; * ) e.e.e.",
"r.r.r. .; 7 7 7 7 7 ; - - - - - - - 6 7 6 ; - - - - - - - - 5.r.0.{                   * - * .             o - - - - * . ] e.e.e.",
"r.r.r. .- ; 7 7 7 7 7 ; - - - - - 6 7 7 7 > - - - - - - - - ,.r.0.{                 $ - - - * .         @ * - - - * X   _ e.e.e.",
"r.r.r. .- - ; 7 7 7 7 7 ; - - - - > 7 7 7 7 - - - - - - - - 5.r.e.{                 - - - - $         + - - - ; - @     _ e.e.e.",
"r.r.r. .- - - ; 7 7 7 7 7 ; - - - - 6 7 7 7 ; - - - - - - - ,.r.e.{               + - - - &         + - - - ; * +       _ e.e.e.",
"r.r.r. .- - - - ; 7 7 7 7 6 ; - - - : 7 7 7 : - - - - - > ) r.r.e.e.I %           @ - - - @       X * - - - * X         _ e.e.e.",
"r.r.r. .- - - - - ; 7 7 7 7 7 ; - - 4 7 7 7 ; - - - - m 6.r.r.r.e.e.e.%.z         + - - - *     + * ; - ; - +           _ e.e.e.",
"r.r.r. .- - - - - - ; 6 7 7 7 7 6 7 7 7 7 7 - - - - F r.r.r.r.r.e.e.e.e.4.S         - - - - * * * ; - - * .             _ e.e.e.",
"r.r.r. .- - - - - - - ; 7 7 7 7 7 7 7 7 7 > - - - D r.r.r.r.r.! W 0.e.e.0.e.v       $ - - - - - - - - - o               _ e.e.e.",
"r.r.r. .- - - - - - - - ; 7 7 7 7 7 7 7 > - - - n r.r.r.r.<.f u 8 w *.e.e.e.0.5       & - - - - - - - o                 _ e.e.e.",
"r.r.r. .- - - - ; - - - - 4 7 7 7 7 4 : - - - , >.r.r.r.&.p u u 8 8 0 O.e.e.e.{ o       # = - - - - *                   _ e.e.e.",
"r.r.r. .- - - - 6 > - - - 6 7 7 7 ; - - - - - Y r.r.r.<.p u u u 8 8 8 9 @.e.e.e.S             - - - *       $ * .       _ e.e.e.",
"r.r.r. .- - - 6 7 7 4 : 4 7 7 7 4 - - - - - - 5.r.r.r.j u u u u 8 8 8 8 r 0.e.e.1.            = - - - * @ * - - * .     _ e.e.e.",
"r.r.r. .- - 4 7 7 7 7 7 7 7 7 7 : - - - - - b r.r.r.+.u u u u u 8 8 8 8 8 Q e.e.e.1           # - - - - - - - - - &     _ e.e.e.",
"r.r.r. .- - - 6 7 7 7 7 7 7 7 4 - - - - - - G r.r.r.N u u u u u 8 8 8 8 8 y e.e.e.v             & - - - - - - - *       _ e.e.e.",
"r.r.r. .- - - - > 7 7 7 7 7 > - - - - - - - T r.r.r.h u u u u u 8 8 8 8 8 e e.e.e.K       X       $ - - - - - $         _ e.e.e.",
"r.r.r. .- - - - - - ; : ; ; - - - - ; b P T o.r.r.r.f u u u u u 8 8 8 8 8 q e.e.e.[ J c & O           + + +             _ e.e.e.",
"r.r.r. .- - - - - - - - - - - - , U 6.r.r.r.r.r.r.r.k u u u u u 8 8 8 8 8 t e.e.e.e.e.e.0.{ S X                         _ e.e.e.",
"r.r.r. .- - - - - - - - - - - n 6.r.r.r.r.r.r.r.r.r.w.h u u u u 8 8 8 8 w 1.0.e.e.e.e.e.e.e.e.{ 2                       _ e.e.e.",
"r.r.r. .- - - - - - - - - - P r.r.r.r.r.r.r.r.r.r.r.r.w.g u u u 8 8 8 w 1.e.e.e.e.e.e.e.e.e.e.e.0.c                     _ 0.e.e.",
"r.r.r. .- - - - - - - - - P r.r.r.r.r.=.A C B A w.r.r.r.w.g u u 8 8 w 1.e.e.e.2.k d h M ' e.e.e.0.0.c                   _ e.e.e.",
"r.r.r. .- - - - - - - - m r.r.r.r.8.C a a a a a C w.r.r.r.w.h u 8 w 1.e.e.e.2.g u u u u u g $.e.0.0.0.3                 _ e.e.e.",
"r.r.r. .- - - - - - - , 6.r.r.r.;.s a a a a a a a C w.r.r.r.w.d w 1.e.e.e.2.g u u u u u u u i #.0.e.e.<.% .             _ e.e.e.",
"r.r.r. .- - - - - - - E r.r.r.9.l a a a a a a a a a V q.r.r.r.q.1.e.e.e.2.g u u u u u u u u u p *.e.e.e.I               _ e.e.e.",
"r.r.r.7.5.,.,.,.5.,.,.r.r.r.r.B a a a a a a a a a a a C w.r.r.r.e.e.e.2.d u u u u u u u u u u u f 4.e.e.0.{ { { { { { { 4.e.e.e.",
"r.r.r.r.r.r.r.r.r.r.r.r.r.r./ a a a a a a a a a a a a a V w.r.r.e.e.2.g u u u u u u u u u u u u u ^ e.e.e.e.e.e.0.0.e.e.e.e.e.e.",
"r.r.r.r.r.r.r.r.r.r.r.r.r.r.( a a a a a a a a a a a a a B q.r.r.e.e.2.g u u u u u u u u u u u u u ^ e.e.e.e.e.e.e.e.4.e.e.e.e.e.",
"r.r.r.7.,.,.,.,.,.o.o.r.r.r.r.B a a a a a a a a a a a V w.r.r.r.e.e.e.2.g u u u u u u u u u u u g 0.e.e.e.{ { { { { { { 2.e.e.e.",
"r.r.r. .- - - - - - - ) r.r.r.9.l a a a a a a a a a V w.r.r.r.q.1.e.e.e.2.g u u u u u u u u u p *.e.e.e.I               ] e.e.e.",
"r.r.r. .- - - - - - - < 6.r.r.r.:.s a a a a a a a V w.r.r.r.w.f w 1.e.e.e.2.d u u u u u u u i ` e.0.0.1.O               ) e.e.e.",
"r.r.r. .- - - - - - - - n r.r.r.r.8.Z a a a a a V w.r.r.r.w.g u 8 w 1.e.e.e.2.g u u u u u h @.e.e.e.4.5                 ] e.e.e.",
"r.r.r. .- - - - - - - - - F r.r.r.r.r.-.~ C B A w.r.r.r.w.g u u 8 9 0 1.e.e.e.2.M d d M ` e.e.e.e.0.x                   Q 4.e.e.",
"r.r.r. .- - - - - - - - - - D r.r.r.r.r.r.r.r.r.r.r.r.w.g u u u 8 8 8 w 1.e.e.e.e.e.e.e.e.e.e.e.0.S                     ) e.e.e.",
"r.r.r. .- - - - - - - - - - - n >.r.r.r.r.r.r.r.r.r.w.h u u u u 8 8 8 8 w 1.e.e.e.e.e.e.e.e.0.1.5                       ] e.e.e.",
"r.r.r. .- - - - - - - - - - - - , U >.r.r.r.r.r.r.r.M u u u u u 8 8 8 8 8 t e.e.e.e.e.e.e.1.J X                         E e.e.e.",
"r.r.r. .- - - - - - : : : - - - - - - b G T o.r.r.r.d u u u u u 8 8 8 8 9 0 e.e.e.[ H S &             o @ o             ) e.e.e.",
"r.r.r. .- - - - > 7 7 7 7 7 : - - - - - - - T r.r.r.h u u u u u 8 8 8 8 8 e e.e.e.J               & - - - - - &         _ e.e.e.",
"r.r.r. .- - - 6 7 7 7 7 7 7 7 4 - - - - - - L r.r.r.N u u u u u 8 8 8 8 8 y e.e.e.x             & - - - - - - - *       _ e.e.e.",
"r.r.r. .- - 4 7 7 7 7 7 7 7 7 7 : - - - - - b r.r.r.+.u u u u u 8 8 8 8 8 Q e.e.e.&           & - - - - - - - - = &     _ e.e.e.",
"r.r.r. .- - - 6 7 7 6 : 6 7 7 7 6 - - - - - - 6.r.r.r.h u u u u 8 8 8 8 r e.e.e.*.O         . & - - - & @ & - - & .     _ e.e.e.",
"r.r.r. .- - - - 6 > - - - 6 7 7 7 - - - - - - U r.r.r.<.i u u u 8 8 8 9 @.e.e.e.S             - - - *       & = X       _ e.e.e.",
"r.r.r. .- - - - - - - - - 6 7 7 7 7 6 : - - - , 6.r.r.r.&.p u u 8 8 0 O.e.e.e.{ X       & & - - - ; &                   _ e.e.e.",
"r.r.r. .- - - - - - - - - 7 7 7 7 7 7 7 4 ; - - n r.r.r.r.3.f u 8 w *.e.e.e.e.&     . & - - - - - - - o                 _ e.e.e.",
"r.r.r. .- - - - - - - ; 7 7 7 7 7 7 7 7 4 4 - - - G r.r.r.r.r.! W e.e.e.e.0.S       & - - - - - - - - - o               _ e.e.e.",
"r.r.r. .- - - - - - ; 7 7 7 7 7 4 4 7 7 7 7 - - - - G r.r.r.r.r.e.e.e.e.0.S         - - - - & & - - - - - o             _ e.e.e.",
"r.r.r. .- - - - - ; 6 7 7 7 7 ; - - 4 7 7 7 : - - - - D 6.r.r.r.e.e.e.2.&         o - - - &     o = - - - = o           _ e.e.e.",
"r.r.r. .; - - - ; 7 7 7 7 7 ; - - - : 7 7 7 : - - - - - : R r.r.e.e.I &           + - - - &       o - - - - - o         _ e.e.e.",
"r.r.r. .- - - ; 7 7 7 7 7 ; - - - * 4 7 7 7 ; - - - - - - - 5.r.e.*.              + - - - &         X - - - - = o       _ e.e.e.",
"r.r.r. .- - ; 7 7 7 7 7 ; - - - ; 4 7 7 7 7 ; - - - - - - - >.r.0.{                 - - - - &         o = - - - = o     _ e.e.e.",
"r.r.r. .- ; 7 7 7 7 7 ; - - - - ; 4 7 7 4 4 - - - - - - - - 5.r.e.@.                & - - - & .         o - - - - - o   _ e.e.e.",
"r.r.r. .; 7 7 7 7 7 ; - - - - - - - 4 4 4 ; - - - - - - - - 5.r.e.{                   & - =               o - - - - = o ] e.e.e.",
"r.r.r.| 7 7 7 7 6 ; - - - - - - - - ; 4 - - - - - - - - - - >.r.e.{                     & .                 o - - - - - ) 0.e.e.",
"r.r.r.X.7 7 7 7 ; - - - - - - - - - - - - - - - - - - - - - 5.r.e.{                                           o - - - - ] e.e.e.",
"r.r.r.X.7 7 7 ; - - - - - - - - - - - ; - - - - - - - - - - 5.r.e.{                                             o = - - ] e.e.e.",
"r.r.r.7.....} | | | | | | | | | | | | | | | | | | | | | } | 7.r.e.4.) ) _ ) ) _ ) ) ) ) ) ) ) ) ) ) ) ) ) ) ) ) ) ) ] ] 1.e.e.e.",
"r.r.r.r.r.r.r.r.r.r.r.r.r.r.r.r.r.r.r.r.r.r.r.r.r.r.r.r.r.r.r.r.e.e.e.e.e.e.e.0.e.e.e.e.e.e.e.e.0.0.e.e.e.e.e.e.0.e.e.e.e.e.e.e.",
"r.r.r.r.r.r.r.r.r.r.r.r.r.r.r.r.r.r.r.r.r.r.r.r.r.r.r.r.r.r.r.r.e.e.e.e.e.e.e.e.e.e.e.e.e.e.e.e.e.e.e.e.e.e.e.e.0.e.e.e.e.e.e.e.",
"r.r.r.r.r.r.r.r.r.r.r.r.r.r.r.r.r.r.r.r.r.r.r.r.r.r.r.r.r.r.r.r.e.e.e.e.e.e.e.e.e.e.e.e.e.e.e.e.e.e.e.e.e.e.e.e.e.e.e.e.e.e.e.e."
};
