/* XPM */
static char *result[] = {
/* columns rows colors chars-per-pixel */
"64 64 246 2 ",
"   c #1F3399",
".  c #1F339A",
"X  c #1F339B",
"o  c #1F349A",
"O  c #1F349B",
"+  c #20339A",
"@  c #20349C",
"#  c #20349D",
"$  c #20359D",
"%  c #20349E",
"&  c #20359F",
"*  c #2035A0",
"=  c #2135A1",
"-  c #2036A0",
";  c #2036A1",
":  c #2136A2",
">  c #2136A4",
",  c #2137A4",
"<  c #2137A5",
"1  c #2237A6",
"2  c #2237A7",
"3  c #2138A7",
"4  c #2238A8",
"5  c #2338A8",
"6  c #2238A9",
"7  c #2239A9",
"8  c #2239AB",
"9  c #2339AB",
"0  c #2239AC",
"q  c #2339AC",
"w  c #2339AD",
"e  c #233AAD",
"r  c #233AAE",
"t  c #243BB2",
"y  c #243CB3",
"u  c #253CB4",
"i  c #253DB7",
"p  c #253DB8",
"a  c #253EB8",
"s  c #263EBA",
"d  c #263FBD",
"f  c #273FBE",
"g  c #273FBF",
"h  c #2640BE",
"j  c #2640C0",
"k  c #2740C0",
"l  c #2740C1",
"z  c #2741C1",
"x  c #2741C3",
"c  c #2742C4",
"v  c #2841C3",
"b  c #2842C4",
"n  c #2843C8",
"m  c #2843C9",
"M  c #2843CA",
"N  c #2943CA",
"B  c #2943CB",
"V  c #2944CA",
"C  c #2844CB",
"Z  c #2944CB",
"A  c #2944CC",
"S  c #2945CC",
"D  c #2945CD",
"F  c #2A45CC",
"G  c #2B45CC",
"H  c #2A44CD",
"J  c #2946CD",
"K  c #2947CD",
"L  c #2A46CE",
"P  c #2949CF",
"I  c #2A48CF",
"U  c #2A49CF",
"Y  c #2D48CD",
"T  c #2E49CD",
"R  c #304ACD",
"E  c #304ACE",
"W  c #344FCE",
"Q  c #354FCE",
"!  c #3650CF",
"~  c #2A49D0",
"^  c #294AD0",
"/  c #2A4AD0",
"(  c #2A4BD1",
")  c #2A4DD1",
"_  c #2A4CD2",
"`  c #2A4DD2",
"'  c #2B4ED3",
"]  c #2A4FD3",
"[  c #2B4FD3",
"{  c #2A4FD4",
"}  c #2B4FD4",
"|  c #2A50D4",
" . c #2A51D4",
".. c #2B52D5",
"X. c #2B52D6",
"o. c #2B53D6",
"O. c #2B54D6",
"+. c #2B54D7",
"@. c #2C57D9",
"#. c #2B58D9",
"$. c #2B59DA",
"%. c #2C58DA",
"&. c #2C59DA",
"*. c #2C5BDA",
"=. c #2C5BDB",
"-. c #2C5BDC",
";. c #2C5CDC",
":. c #2C5DDC",
">. c #2D5FDE",
",. c #3D56D0",
"<. c #3D57D1",
"1. c #3F58D0",
"2. c #2D60DE",
"3. c #2C60DF",
"4. c #2C61DF",
"5. c #2D61DF",
"6. c #2D61E0",
"7. c #2C62E0",
"8. c #2D62E0",
"9. c #2D63E0",
"0. c #2D63E1",
"q. c #2D64E1",
"w. c #2D65E1",
"e. c #2D64E2",
"r. c #2D68E4",
"t. c #2D69E5",
"y. c #2E68E4",
"u. c #2E69E5",
"i. c #2D6BE5",
"p. c #2E6AE5",
"a. c #2E6AE6",
"s. c #2E6BE6",
"d. c #2F6CE6",
"f. c #306CE6",
"g. c #306DE6",
"h. c #326EE6",
"j. c #346FE7",
"k. c #3570E7",
"l. c #3671E7",
"z. c #3B73E7",
"x. c #3C74E7",
"c. c #3D74E7",
"v. c #4059D0",
"b. c #4B62D3",
"n. c #4B63D3",
"m. c #5269D4",
"M. c #536AD4",
"N. c #596FD6",
"B. c #5B72D7",
"V. c #6076D7",
"C. c #6277D7",
"Z. c #6278D7",
"A. c #6379D8",
"S. c #687DD9",
"D. c #447AE8",
"F. c #457AE8",
"G. c #467BE8",
"H. c #477BE8",
"J. c #477CE8",
"K. c #6C82D9",
"L. c #6F83DA",
"P. c #7084DA",
"I. c #7387DB",
"U. c #7589DB",
"Y. c #768ADC",
"T. c #7A8FDC",
"R. c #5383E8",
"E. c #5887E9",
"W. c #5B89E9",
"Q. c #628DE9",
"!. c #668FEA",
"~. c #6B93EA",
"^. c #6C94EA",
"/. c #6F96EB",
"(. c #7499EB",
"). c #749AEB",
"_. c #7A9DEB",
"`. c #7B9EEB",
"'. c #7C9EEB",
"]. c #879ADF",
"[. c #889BDF",
"{. c #899BDF",
"}. c #8A9CDF",
"|. c #8C9EE0",
" X c #80A1EC",
".X c #82A2EC",
"XX c #82A3EC",
"oX c #89A7EC",
"OX c #88A7ED",
"+X c #95A5E2",
"@X c #94A6E2",
"#X c #9EAEE3",
"$X c #97B0EE",
"%X c #98B1EE",
"&X c #99B1EE",
"*X c #9CB4EE",
"=X c #9DB4EE",
"-X c #A1B1E4",
";X c #A6B5E5",
":X c #ACBBE6",
">X c #ADBCE6",
",X c #ADBDE7",
"<X c #A4B9EE",
"1X c #A5B9EE",
"2X c #AFC0EF",
"3X c #B8C6EF",
"4X c #BAC8E9",
"5X c #BFCDEB",
"6X c #B3C3F0",
"7X c #BDCAF0",
"8X c #BECAF0",
"9X c #BFCBF0",
"0X c #C1CEEB",
"qX c #C4D1EB",
"wX c #C8D5EC",
"eX c #CAD6EC",
"rX c #CBD7ED",
"tX c #CCD8ED",
"yX c #CED4F1",
"uX c #CFD5F1",
"iX c #D7DBF2",
"pX c #D8DCF2",
"aX c #DADDF3",
"sX c #DBDDF3",
"dX c #D6E1EF",
"fX c #DEE0F3",
"gX c #DBE5F0",
"hX c #DAE6F0",
"jX c #DBE7F0",
"kX c #DFEAF0",
"lX c #DFEAF1",
"zX c #E1E1F2",
"xX c #E2E2F3",
"cX c #E3E2F3",
"vX c #E0EAF0",
"bX c #E1EBF1",
"nX c #E4EFF2",
"mX c #E5EFF2",
"MX c #EDE9F4",
"NX c #F3EDF5",
"BX c #E6F0F2",
"VX c #F8F0F4",
"CX c #FAF2F4",
"ZX c #FDF4F5",
"AX c #FEF4F5",
"SX c #FFF5F5",
/* pixels */
"s.s.s.s.s.s.s.s.s.s.s.s.s.s.s.s.s.s.s.s.s.s.s.s.s.s.s.s.s.s.s.s.A A A A A A A A A A A A A A A A A A A A A A A A A A A A A A A A ",
"s.s.s.s.s.s.s.s.s.s.s.s.s.s.s.s.s.s.s.s.s.s.s.s.s.s.s.s.s.s.s.s.A A A A A A A A A A A A A A A A A A A A A A A A A A A A A A A A ",
"s.s.s.s.s.s.s.s.s.s.s.s.s.s.s.s.s.s.s.s.s.s.s.s.s.s.s.s.s.s.s.s.A A A A A A A A A A A A A A A A A A A A A A A A A A A A A A A A ",
"s.s.s.x.!.!.!.!.!.!.!.!.!.!.!.!.!.!.!.!.!.!.!.!.!.!.!.c.s.s.s.s.A A A A ! B.B.B.B.B.B.B.B.B.B.B.B.B.B.B.B.B.B.B.B.B.B.B.Q A A A ",
"s.s.s.Q.SXSXSXSXSXSXSXSXSXSXSXSXSXSXSXSXSXSXSXSXSXSXxXj.s.s.s.*.s A A A Y eXBXBXBXBXBXBXBXBXBXBXBXBXBXBXBXBXBXBXBXBXBXBXN.A A A ",
"s.s.s.Q.SXSXSXSXSXSXSXSXSXSXSXSXSXSXSXSXSXSXSXSXSXSX_.s.s.s.2.A . f A A A L.BXBXBXBXBXBXBXBXBXBXBXBXBXBXBXBXBXBXBXBXBXBXN.A A A ",
"s.s.s.Q.SXSXSXSXSXSXSXSXSXSXSXSXSXSXSXSXSXSXSXSXSXNXl.s.s.t.U A   & M A A E gXBXBXBXBXBXBXBXBXBXBXBXBXBXBXBXBXBXBXBXBXBXN.A A A ",
"s.s.s.Q.SXSXSXSXSXSXSXSXSXSXSXSXSXSXSXSXSXSXSXSXSX7Xs.s.s.=.A A     p A A A >XBXBXBXBXBXBXBXBXBXBXBXBXBXBXBXBXBXBXBXBXBXN.A A A ",
"s.s.s.Q.SXSXSXSXSXSXSXSXSXSXSXSXSXSXSXSXSXSXSXSXSX$Xs.s.s.| A A     6 A A A {.BXBXBXBXBXBXBXBXBXBXBXBXBXBXBXBXBXBXBXBXBXN.A A A ",
"s.s.s.Q.SXSXSXSXSXSXSXSXSXSXSXSXSXSXSXSXSXSXSXSXSX Xs.s.s./ A A     : A A A I.BXBXBXBXBXBXBXBXBXBXBXBXBXBXBXBXBXBXBXBXBXN.A A A ",
"s.s.s.Q.SXSXSXSXSXSXSXSXSXSXSXSXSXSXSXSXSXSXSXSXSXXXs.s.s.P A A     - A A A Y.BXBXBXBXBXBXBXBXBXBXBXBXBXBXBXBXBXBXBXBXBXN.A A A ",
"s.s.s.Q.SXSXSXSXSXSXSXSXSXSXSXSXSXSXSXSXSXSXSXSXVX/.s.s.s._ A A     < A A A A.kXBXBXBXBXBXBXBXBXBXBXBXBXBXBXBXBXBXBXBXBXN.A A A ",
"s.s.s.Q.SXSXSXSXSXSXSXSXSXSXSXSXSXSXSXSXSXSXfXOXz.s.s.s.s.o.A A     q A A A A W T.wXBXBXBXBXBXBXBXBXBXBXBXBXBXBXBXBXBXBXN.A A A ",
"s.s.s.Q.SXSXSXSXSXSXSXSXSXSXSXSXSXSXSXSXaX`.g.s.s.s.s.s.s.;.A A     a A A A A A A G C.5XBXBXBXBXBXBXBXBXBXBXBXBXBXBXBXBXN.A A A ",
"s.s.s.Q.SXSXSXSXSXSXSXSXSXSXSXSXSXSXSX3Xd.s.s.s.s.s.s.u.2.o.A A     e d m A A A A A A F ;XBXBXBXBXBXBXBXBXBXBXBXBXBXBXBXN.A A A ",
"s.s.s.Q.SXSXSXSXSXSXSXSXSXSXSXSXSXSXSXSX1Xf.s.s.s.p.{ S A A A A         O 4 Z A A A F ].BXBXBXBXBXBXBXBXBXBXBXBXBXBXBXBXN.A A A ",
"s.s.s.Q.SXSXSXSXSXSXSXSXSXSXSXSXSXSXSXSXSX6Xh.s.s.s.X.A A A A A           0 A A A Y -XBXBXBXBXBXBXBXBXBXBXBXBXBXBXBXBXBXN.A A A ",
"s.s.s.Q.SXSXSXSXSXSXSXSXSXSXSXSXSXSXSXSXSXSX2Xs.s.s.4.A A A A A           g A A A +XBXBXBXBXBXBXBXBXBXBXBXBXBXBXBXBXBXBXN.A A A ",
"s.s.s.Q.SXSXSXSXSXSXSXSXSXSXSXSXSXSXSXSXSXSXAXG.s.s.p.A A A A A         + Z A A <.nXBXBXBXBXBXBXBXBXBXBXBXBXBXBXBXBXBXBXN.A A A ",
"s.s.s.Q.SXSXSXSXSXSXSXSXSXSX3XSXSXSXSXSXSXSXSX~.s.s.s.L A A A H         # A A A V.BXBXBXBXBXBXBXBX;XBXBXBXBXBXBXBXBXBXBXN.A A A ",
"s.s.s.Q.SXSXSXSXSXSXSXSXSXpXd.*XSXSXSXSXSXSXSXR.s.s.i.S A A A ..8       X B A A b.BXBXBXBXBXBXBX|.F 0XBXBXBXBXBXBXBXBXBXN.A A A ",
"s.s.s.Q.SXSXSXSXSXSXSXSXSX(.s.d.6XSXSXSXSXSXiXf.s.s.q.A A A A 0.v         b A A G 4XBXBXBXBXBX-XF A S.BXBXBXBXBXBXBXBXBXN.A A A ",
"s.s.s.Q.SXSXSXSXSXSXSXSXfXf.s.s.h.1XZXSXSXyXJ.s.s.s.@.A A A [ s.A 4       y A A A 1.4XBXBXnX@XY A A G wXBXBXBXBXBXBXBXBXN.A A A ",
"s.s.s.Q.SXSXSXSXSXSXSXSXOXs.s.s.s.s.D.~.R.f.s.s.s.r.K A A A 7.s.A l       @ n A A A G b.V.,.A A A A A T.BXBXBXBXBXBXBXBXN.A A A ",
"s.s.s.Q.SXSXSXSXSXSXSXVXx.s.s.s.s.s.s.s.s.s.s.s.p.' A A A ] s.s.A A 2       3 C A A A A A A A A A A A W lXBXBXBXBXBXBXBXN.A A A ",
"s.s.s.Q.SXSXNX7X%X.X.X^.s.s.s.p.s.s.s.s.s.s.s.r.] A A A D q.s.s.A A x .       3 n A A A A A A A Z A A A Z.U.U.[.:XhXBXBXN.A A A ",
"s.s.s.Q.zX_.k.s.s.s.s.s.s.s.s.} o.8.a.s.s.w.@.K A A A A %.s.s.s.A A A u         $ t x A A N g 9 4 A A A A A A A A E L.tXN.A A A ",
"s.s.s.z.j.s.s.s.s.s.s.s.s.s.u.S A A A J D A A A A A A +.s.s.s.s.A A A A r             + $ o     O m A A A A A A A A A T W A A A ",
"s.s.s.s.s.s.s.s.s.s.s.s.s.s.2.A A A A A A A A A A D &.s.s.s.s.oXK.A A A A u +                     h A A A A A A A A A A A A A A ",
"s.s.s.s.s.s.t.-.| / ~ ) O.-.o.A A A A A A A A A ] w.s.s.s.s.E.CXvXM.A A A A x 1                   e a w , & ; 5 i V A A A A A A ",
"s.s.s.s.s.2.P A A A A A A A A A A A A A A A ` 5.s.s.s.s.s.W.MXSXBXdXm.A A A A A z 7                               & d A A A A A ",
"s.s.s.s.;.A A A A A A A A A A A A A A A [ 9.s.s.s.s.s.s.).VXSXSXBXBXbXL.A A A A A A v q                               p A A A A ",
"s.s.s.s.;.A A A A A A A A A A A A A A A [ 8.s.s.s.s.s.s.).VXSXSXBXBXbXL.A A A A A A v q                               p A A A A ",
"s.s.s.s.s.2.P A A A A A A A A A A A A A A A ` 5.s.s.s.s.s.W.MXSXBXdXm.A A A A A z 7                               & h A A A A A ",
"s.s.s.s.s.s.t.;. .( ~ ` O.-.o.A A A A A A A A A ] q.s.s.s.s.E.CXvXM.A A A A x 1                   e a w > * = 6 p Z A A A A A A ",
"s.s.s.s.s.s.s.s.s.s.s.s.s.s.>.A A A A A A A A A A D $.s.s.s.s.oXK.A A A A u +                     d A A A A A A A A A A A A A A ",
"s.s.s.z.j.s.s.s.s.s.s.s.s.s.u.S A A D J D A A A A A A +.s.s.s.s.A A A A r             . $       O m A A A A A A A A A T W A A A ",
"s.s.s.Q.xX'.l.s.s.s.s.s.s.s.s.} X.6.a.s.s.q.#.J A A A A &.s.s.s.A A A u         @ y x A A B j 0 4 A A A A A A A A R P.tXN.A A A ",
"s.s.s.Q.SXSXNX9X&X.X.X^.s.s.s.p.s.s.s.s.s.s.s.y.' A A A D q.s.s.A A c +       3 m A A A A A A A Z A A A Z.U.U.}.,XjXBXBXN.A A A ",
"s.s.s.Q.SXSXSXSXSXSXSXVXx.s.s.s.s.s.s.s.s.s.s.s.p.[ A A A ] s.s.A A 2       4 C A A A A A A A A A A A W lXBXBXBXBXBXBXBXN.A A A ",
"s.s.s.Q.SXSXSXSXSXSXSXSXOXs.s.s.s.s.F.~.R.f.s.s.s.r.J A A A 7.s.A l       @ m A A A G b.V.<.A A A A A T.BXBXBXBXBXBXBXBXN.A A A ",
"s.s.s.Q.SXSXSXSXSXSXSXSXfXf.s.s.h.1XZXSXSXuXH.s.s.s.@.A A A [ s.A 4       y A A A v.4XBXBXnX+XY A A G wXBXBXBXBXBXBXBXBXN.A A A ",
"s.s.s.Q.SXSXSXSXSXSXSXSXSX(.s.d.6XSXSXSXSXSXuXf.s.s.e.A A A A 0.v         b A A G qXBXBXBXBXBX-XF A S.BXBXBXBXBXBXBXBXBXN.A A A ",
"s.s.s.Q.SXSXSXSXSXSXSXSXSXpXd.=XSXSXSXSXSXSXSXR.s.s.i.S A A A ..8       X B A A n.BXBXBXBXBXBXBX|.F 0XBXBXBXBXBXBXBXBXBXN.A A A ",
"s.s.s.Q.SXSXSXSXSXSXSXSXSXSX3XSXSXSXSXSXSXSXSX~.s.s.s.L A A A H         # A A A V.BXBXBXBXBXBXBXBX;XBXBXBXBXBXBXBXBXBXBXN.A A A ",
"s.s.s.Q.SXSXSXSXSXSXSXSXSXSXSXSXSXSXSXSXSXSXZXD.s.s.p.A A A A A           V A A <.mXBXBXBXBXBXBXBXBXBXBXBXBXBXBXBXBXBXBXN.A A A ",
"s.s.s.Q.SXSXSXSXSXSXSXSXSXSXSXSXSXSXSXSXSXSX<Xs.s.s.5.A A A A A           k A A A #XBXBXBXBXBXBXBXBXBXBXBXBXBXBXBXBXBXBXN.A A A ",
"s.s.s.Q.SXSXSXSXSXSXSXSXSXSXSXSXSXSXSXSXSX6Xh.s.s.s...A A A A A           q A A A Y -XBXBXBXBXBXBXBXBXBXBXBXBXBXBXBXBXBXN.A A A ",
"s.s.s.Q.SXSXSXSXSXSXSXSXSXSXSXSXSXSXSXSX1Xf.s.s.s.t.{ S A A A A         O 4 Z A A A F ].BXBXBXBXBXBXBXBXBXBXBXBXBXBXBXBXN.A A A ",
"s.s.s.Q.SXSXSXSXSXSXSXSXSXSXSXSXSXSXSX3Xd.s.s.s.s.s.s.u.2.o.A A     e d m A A A A A A F ;XBXBXBXBXBXBXBXBXBXBXBXBXBXBXBXN.A A A ",
"s.s.s.Q.SXSXSXSXSXSXSXSXSXSXSXSXSXSXSXSXsX`.g.s.s.s.s.s.s.;.A A     a A A A A A A G C.5XBXBXBXBXBXBXBXBXBXBXBXBXBXBXBXBXN.A A A ",
"s.s.s.Q.SXSXSXSXSXSXSXSXSXSXSXSXSXSXSXSXSXSXfXOXz.s.s.s.s.o.A A     q A A A A W T.wXBXBXBXBXBXBXBXBXBXBXBXBXBXBXBXBXBXBXN.A A A ",
"s.s.s.Q.SXSXSXSXSXSXSXSXSXSXSXSXSXSXSXSXSXSXSXSXVX/.s.s.s.) A A     < A A A A.kXBXBXBXBXBXBXBXBXBXBXBXBXBXBXBXBXBXBXBXBXN.A A A ",
"s.s.s.Q.SXSXSXSXSXSXSXSXSXSXSXSXSXSXSXSXSXSXSXSXSXXXs.s.s.P A A     - A A A Y.BXBXBXBXBXBXBXBXBXBXBXBXBXBXBXBXBXBXBXBXBXN.A A A ",
"s.s.s.Q.SXSXSXSXSXSXSXSXSXSXSXSXSXSXSXSXSXSXSXSXSX Xs.s.s.^ A A     = A A A I.BXBXBXBXBXBXBXBXBXBXBXBXBXBXBXBXBXBXBXBXBXN.A A A ",
"s.s.s.Q.SXSXSXSXSXSXSXSXSXSXSXSXSXSXSXSXSXSXSXSXSX%Xs.s.s.| A A     6 A A A }.BXBXBXBXBXBXBXBXBXBXBXBXBXBXBXBXBXBXBXBXBXN.A A A ",
"s.s.s.Q.SXSXSXSXSXSXSXSXSXSXSXSXSXSXSXSXSXSXSXSXSX8Xs.s.s.;.A A     p A A A ,XBXBXBXBXBXBXBXBXBXBXBXBXBXBXBXBXBXBXBXBXBXN.A A A ",
"s.s.s.Q.SXSXSXSXSXSXSXSXSXSXSXSXSXSXSXSXSXSXSXSXSXNXl.s.s.t.I A   % V A A E gXBXBXBXBXBXBXBXBXBXBXBXBXBXBXBXBXBXBXBXBXBXN.A A A ",
"s.s.s.Q.SXSXSXSXSXSXSXSXSXSXSXSXSXSXSXSXSXSXSXSXSXSX_.s.s.s.3.S   h A A A P.BXBXBXBXBXBXBXBXBXBXBXBXBXBXBXBXBXBXBXBXBXBXN.A A A ",
"s.s.s.Q.SXSXSXSXSXSXSXSXSXSXSXSXSXSXSXSXSXSXSXSXSXSXcXk.s.s.s.:.p A A A Y rXBXBXBXBXBXBXBXBXBXBXBXBXBXBXBXBXBXBXBXBXBXBXN.A A A ",
"s.s.s.x.!.!.!.!.!.!.!.!.!.!.!.!.!.!.!.!.!.!.!.!.!.!.!.c.s.s.s.s.A A A A ! B.B.B.B.B.B.B.B.B.B.B.B.B.B.B.B.B.B.B.B.B.B.B.Q A A A ",
"s.s.s.s.s.s.s.s.s.s.s.s.s.s.s.s.s.s.s.s.s.s.s.s.s.s.s.s.s.s.s.s.A A A A A A A A A A A A A A A A A A A A A A A A A A A A A A A A ",
"s.s.s.s.s.s.s.s.s.s.s.s.s.s.s.s.s.s.s.s.s.s.s.s.s.s.s.s.s.s.s.s.A A A A A A A A A A A A A A A A A A A A A A A A A A A A A A A A ",
"s.s.s.s.s.s.s.s.s.s.s.s.s.s.s.s.s.s.s.s.s.s.s.s.s.s.s.s.s.s.s.s.A A A A A A A A A A A A A A A A A A A A A A A A A A A A A A A A "
};
