/* XPM */
static char *result[] = {
/* columns rows colors chars-per-pixel */
"64 64 156 2 ",
"   c #522866",
".  c #552C69",
"X  c #582F6B",
"o  c #5A326D",
"O  c #5D3770",
"+  c #5E3871",
"@  c #644077",
"#  c #654278",
"$  c #6C4A7E",
"%  c #1F3399",
"&  c #20359D",
"*  c #2A3E9E",
"=  c #2136A4",
"-  c #2138A7",
";  c #2339AB",
":  c #253DB6",
">  c #263FBD",
",  c #3446A3",
"<  c #3B4FA6",
"1  c #2740BF",
"2  c #604080",
"3  c #674986",
"4  c #6C4C82",
"5  c #6C4D88",
"6  c #735585",
"7  c #74578F",
"8  c #775A8A",
"9  c #795D8C",
"0  c #7B5E93",
"q  c #7D628E",
"w  c #7E6196",
"e  c #495BAC",
"r  c #5364B0",
"t  c #5A6BB3",
"y  c #2640C0",
"u  c #2944CC",
"i  c #2B48CE",
"p  c #354ECE",
"a  c #3751CF",
"s  c #3952CF",
"d  c #2A4DD2",
"f  c #2B52D5",
"g  c #2C57D9",
"h  c #2C5CDC",
"j  c #3D55D0",
"k  c #2D61E0",
"l  c #2E6BE6",
"z  c #336EE7",
"x  c #3C74E7",
"c  c #435BD1",
"v  c #495FD3",
"b  c #566AD5",
"n  c #6174D7",
"m  c #6278D7",
"M  c #6979D8",
"N  c #4077E7",
"B  c #4A7EE8",
"V  c #806692",
"C  c #836A94",
"Z  c #846A9B",
"A  c #886D9D",
"S  c #8A709F",
"D  c #8E74A1",
"F  c #8F7BA0",
"G  c #9077A3",
"H  c #937CA5",
"J  c #967DA8",
"K  c #7383BF",
"L  c #6B80D9",
"P  c #7387DB",
"I  c #768ADC",
"U  c #7C8EDC",
"Y  c #4D80E9",
"T  c #6C94EA",
"R  c #779BEB",
"E  c #759BEC",
"W  c #7FA0EC",
"Q  c #9582A5",
"!  c #9786A8",
"~  c #9A86AB",
"^  c #A089AF",
"/  c #A18BB0",
"(  c #A791B5",
")  c #AB95B7",
"_  c #A79CB7",
"`  c #AC96B8",
"'  c #A99DB8",
"]  c #ADA3BC",
"[  c #8493C6",
"{  c #8B9AC9",
"}  c #808CDD",
"|  c #8893DF",
" . c #9BA9D1",
".. c #BEAAC5",
"X. c #BAB5C9",
"o. c #8C9EE0",
"O. c #979FE1",
"+. c #8EA0E0",
"@. c #83A3EC",
"#. c #89A7ED",
"$. c #96A7E2",
"%. c #9DA5E3",
"&. c #96A8E2",
"*. c #9EB0E4",
"=. c #9CB4EE",
"-. c #A2B2E5",
";. c #AEB2E6",
":. c #ADBCE7",
">. c #A6BAEE",
",. c #AABCEF",
"<. c #B1B5E6",
"1. c #C1AFC8",
"2. c #C5B3CB",
"3. c #B5C2DC",
"4. c #AFC1EF",
"5. c #BDCBEA",
"6. c #B2C2F0",
"7. c #BECAF0",
"8. c #C7C6D5",
"9. c #C9CAD7",
"0. c #D1C1D3",
"q. c #DCCDDB",
"w. c #D1D3DE",
"e. c #DFD0DD",
"r. c #CBCAEB",
"t. c #C5D1E3",
"y. c #CAD5E6",
"u. c #C4D1EB",
"i. c #CAD6EC",
"p. c #CEDAEE",
"a. c #D6DAE3",
"s. c #DAD7EE",
"d. c #D3DEEE",
"f. c #CFD5F1",
"g. c #D4D9F2",
"h. c #E3D5E1",
"j. c #E7DAE4",
"k. c #EADCE5",
"l. c #E1DCEF",
"z. c #E4DFF0",
"x. c #DAE0E7",
"c. c #D6E1EF",
"v. c #DAE4ED",
"b. c #DEE9EF",
"n. c #DAE5F0",
"m. c #E2EAED",
"M. c #F3E7EC",
"N. c #F3E8ED",
"B. c #E4E3F3",
"V. c #EBE7F4",
"C. c #E4EEF1",
"Z. c #EEEAF4",
"A. c #F3ECF3",
"S. c #FAEFF1",
"D. c #E6F0F2",
"F. c #FFF5F5",
/* pixels */
"2 2 2 2 2 2 2 2 2 2 2 2 2 2 2 2 2 2 2 2 2 2 2 2 2 2 2 2 2 2 2 2                                                                 ",
"2 2 2 2 2 2 2 2 2 2 2 2 2 2 2 2 2 2 2 2 2 2 2 2 2 2 2 2 2 2 2 2                                                                 ",
"2 2 2 2 2 2 2 2 2 2 2 2 2 2 2 2 2 2 2 2 2 2 2 2 2 2 2 2 2 2 2 2                               .                                 ",
"2 2 + 5 A D A D S S S S S S S S w 2 2 2 2 2 2 2 2 2 2 2 3 7 w Z 6 4 @ .                       $ 9 9 8 q 9 9 9 q 9 9 9 9 o       ",
"2 2 2 A F.F.F.F.F.F.F.F.F.F.F...5 2 2 2 2 2 2 2 Z ) 2.M.F.F.F.F.D.D.D.C.a.X.~ 6 .             O ' m.D.D.D.D.D.D.D.D.D.D.8       ",
"2 2 2 A F.F.F.F.F.F.F.F.F.l.Z 2 2 2 2 2 2 Z 1.A.F.F.F.F.F.F.F.F.D.D.D.D.C.C.D.D.x.' 6             6 w.D.D.D.D.D.D.D.D.D.8       ",
"2 2 2 A F.F.F.F.F.F.F.F.2.3 2 2 2 2 2 G e.F.F.F.F.F.F.F.F.F.F.F.D.D.D.D.D.D.D.D.D.D.D.9.S .         o ] D.D.D.D.D.D.D.D.8       ",
"2 2 2 D F.F.F.F.F.F.F.( 2 2 2 2 2 Z h.F.F.F.F.F.F.F.F.Z.f.6.>.=.+.$.*.5.n.D.D.D.D.D.D.D.D.9.6           Q m.D.D.D.D.D.D.9       ",
"2 2 2 A F.F.F.F.F.S.H 2 2 2 2 3 2.F.F.F.F.F.F.A.7.@.B l l l l l u u u u u c P :.C.D.D.D.D.D.D.] O         V m.D.D.D.D.D.8       ",
"2 2 2 A F.F.F.F.F.D 2 2 2 2 Z j.F.F.F.F.F.z.#.x l l l l l l l l u u u u u u u u a I p.D.D.D.D.D.w.$         q m.D.D.D.D.8       ",
"2 2 2 A F.F.F.F.H 2 2 2 2 H S.F.F.F.F.V.W z l l l l l l l l l l u u u u u u u u u u i P d.D.D.D.D.m.V         V m.D.D.D.8       ",
"2 2 2 A F.F.F.( 2 2 2 2 / S.F.F.F.F.>.x l l l l l l l k h g f d - ; ; : > u u u u u u u p &.D.D.D.D.D.F         Q D.D.D.8       ",
"2 2 2 A F.F.2.2 2 2 2 ^ F.F.F.F.V.T l l l l l l h f u u u u u u % % % % % % ; > u u u u u u m n.D.D.D.D.Q         ] D.D.8       ",
"2 2 2 A F.j.3 2 2 2 G F.F.F.F.B.B l l l l l h i u u u u u u u u % % % % % % % % & : u u u u u c y.D.D.D.D.C       X w.D.8       ",
"2 2 2 A F.Z 2 2 2 w F.F.F.F.g.N l l l l k i u u u u u u u u u u % % % % % % % % % % = 1 u u u u j u.D.D.D.m.$       6 m.8       ",
"2 2 2 A ..2 2 2 3 j.F.F.F.B.N l l l l g u u u u u u u u u u u u % % % % % % % % % % % % ; u u u u s y.D.D.D.w.o       ] 8       ",
"2 2 2 0 5 2 2 2 2.F.F.F.Z.B l l l l d u u u u n %.;.%.n u u u u % % % & t {  .{ r % % % % = u u u u c n.D.D.D.]       O $       ",
"2 2 2 2 2 2 2 A F.F.F.F.T l l l l d u u u j r.F.F.F.F.F.r.j u u % % , 3.D.D.D.D.D.3., % % % = u u u u m D.D.D.D.6               ",
"2 2 2 2 2 2 2 h.F.F.F.>.l l l l d u u u p g.F.F.F.F.F.F.z.c u u % % , y.D.D.D.D.D.D.t.* % % % - u u u u &.D.D.D.9.              ",
"2 2 2 2 2 2 H F.F.F.V.x l l l g u u u u %.F.F.F.F.F.F.l.c u u u % % % , y.D.D.D.D.D.D.[ % % % % : u u u p c.D.D.D.w             ",
"2 2 2 2 2 2 e.F.F.F.W l l l k u u u p $.A.F.F.F.| v } c u u u u % % % % , K < K C.D.D.b.[ * % % % 1 u u u P D.D.C.8.            ",
"2 2 2 2 2 Z F.F.F.B.z l l l d u u j s.F.F.F.F.A.b u u u u u u u % % % % % % % e b.D.D.D.D.t., % % % u u u i p.D.D.C.6           ",
"2 2 2 2 2 ..F.F.F.#.l l l h u u u r.F.F.F.F.F.F.Z.b u u u u u u % % % % % % e v.D.D.D.D.D.D.3.% % % : u u u U D.D.D.]           ",
"2 2 2 2 2 N.F.F.S.x l l l i u u n F.F.F.F.A.F.F.F.V.b u u u u u % % % % % e v.D.D.D.b.D.D.D.D.r % % = u u u a b.D.D.x..         ",
"2 2 2 2 A F.F.F.7.l l l k u u u %.F.F.F.| b A.F.F.F.Z.b u a M o.K t * & e v.D.D.C.v.e K D.D.D.{ % % % 1 u u y 4.D.D.D.6         ",
"2 2 2 2 ` F.F.F.@.l l l d u u u <.F.F.F.c u b A.F.F.F.A.;.A.F.F.D.D.b. .v.D.D.D.v.e % < D.D.D. .% % % - u u u I D.D.D.!         ",
"2 2 2 2 0.F.F.F.B l l l u u u u %.F.F.F.U u u b Z.F.F.F.F.F.F.F.D.D.D.D.D.D.D.v.e % % K D.D.D.{ % % % % u u u c D.D.D.X.        ",
"2 2 2 2 k.F.F.Z.l l l k u u u u n F.F.z.c u u u b Z.F.F.F.F.F.F.D.D.D.D.D.D.v.e % % % , y.D.D.r % % % % 1 u u u v.D.D.w.        ",
"2 2 2 3 S.F.F.f.l l l h u u u u u r.s.c u u u u u ;.F.F.F.F.,.E L *.D.D.D.D. .% % % % % , y.3.% % % % % 1 u u u 5.D.D.C..       ",
"2 2 2 7 F.F.F.6.l l l g u u u u u j c u u u u u p A.F.F.S.T l l u u m D.D.D.b.* % % % % % , , % % % % % ; u u u *.D.D.D.#       ",
"2 2 2 w F.F.F.>.l l l d u u u u u u u u u u u u M F.F.F.,.l l l u u u *.D.D.D.t % % % % % % % % % % % % ; u u u &.D.D.D.$       ",
"2 2 2 Z F.F.F.=.l l l d u u u u u u u u u u u u | F.F.F.E l l l u u u L D.D.D.K % % % % % % % % % % % % - u u u +.D.D.D.6       ",
"2 2 2 Z F.F.F.=.l l l d u u u u u u u u u u u u o.F.F.F.R l l l u u u L D.D.D.K % % % % % % % % % % % % = u u u +.D.D.D.6       ",
"2 2 2 w F.F.F.>.l l l f u u u u u u u u u u u u n F.F.F.,.l l l u u u *.D.D.D.t % % % % % % % % % % % % - u u u &.D.D.D.$       ",
"2 2 2 7 F.F.F.6.l l l f u u u u u s c u u u u u p A.F.F.F.T z l u u m D.D.D.v.* % % % % % , , % % % % % = u u u -.D.D.D.#       ",
"2 2 2 3 F.F.F.f.l l l h u u u u u r.l.c u u u u u ;.F.F.F.F.,.T L *.D.D.D.D. .& % % % % , y.3.% % % % % 1 u u u 5.D.D.D..       ",
"2 2 2 2 k.F.F.Z.l l l k u u u u n F.F.z.c u u u b Z.F.F.F.F.F.F.D.D.D.D.D.D.x.e % % % , y.D.D.r % % % % 1 u u u v.D.D.w.        ",
"2 2 2 2 0.F.F.F.Y l l l u u u u %.F.F.F.} u u b A.F.F.F.F.F.F.F.D.D.D.D.D.D.D.v.e % % K D.D.D.{ % % % % u u u c D.D.D.X.        ",
"2 2 2 2 ` F.F.F.@.l l l d u u u <.F.F.F.c u b Z.F.F.F.Z.;.A.F.F.D.D.b. .v.D.D.D.v.e & < D.D.D. .% % % = u u u I D.D.D.!         ",
"2 2 2 2 Z F.F.F.7.l l l k u u u %.F.F.F.| b A.F.F.F.A.b u p M | K t * % e v.D.D.D.b.e K D.D.D.[ % % % 1 u u u 4.D.D.C.6         ",
"2 2 2 2 2 N.F.F.F.x l l l d u u n F.F.F.F.A.F.F.F.Z.b u u u u u % % % % % e x.D.D.D.b.D.D.D.D.r % % % u u u a C.D.D.a..         ",
"2 2 2 2 2 ..F.F.F.#.l l l h u u u r.F.F.F.F.F.F.Z.b u u u u u u % % % % % % e v.D.D.D.D.D.C.3.% % % 1 u u u U D.D.D.]           ",
"2 2 2 2 2 Z F.F.F.B.z l l l u u u s s.F.F.F.F.A.b u u u u u u u % % % % & % & e b.D.D.D.C.t., % % % u u u i p.D.D.D.6           ",
"2 2 2 2 2 2 q.F.F.F.W l l l k u u u p O.A.F.F.F.o.v } j u u u u % % % % , K < K D.D.D.b.[ * % % % 1 u u u I D.D.D.8.            ",
"2 2 2 2 2 2 H F.F.F.V.x l l l g u u u u O.F.F.F.F.F.F.z.c u u u % % % , y.D.D.D.D.D.D.[ % % % % : u u u a c.C.D.D.q             ",
"2 2 2 2 2 2 2 a.F.F.F.>.l l l l d u u u p s.F.F.F.F.F.F.z.c u u % % , y.D.D.D.D.D.D.t.* % % % - u u u u &.D.C.D.9..             ",
"2 2 2 2 2 2 2 Z F.F.F.F.T l l l l d u u u j r.F.F.F.F.F.r.j u u % % , 3.D.D.D.D.D.3., % % % = u u u u m D.D.C.m.6 .             ",
"2 2 2 V 5 2 2 2 2.F.F.F.Z.B l l l l d u u u u n %.;.%.n u u u u % % % % r {  .{ r % % % % - u u u u c v.D.D.D.]       O $       ",
"2 2 2 Z ..2 2 2 3 j.F.F.F.z.N l l l l g u u u u u u u u u u u u % % % % % % % % % % % % 1 u u u u s i.D.D.D.w.o .     ] 8       ",
"2 2 2 Z F.Z 2 2 2 w A.F.F.F.g.N l l l l k d u u u u u u u u u u % % % % % % % % % % % 1 u u u u s u.D.D.D.m.$ .     6 C.8       ",
"2 2 2 A F.k.3 2 2 2 G F.F.F.F.B.B l l l l l g i u u u u u u u u % % % % % % % % % 1 u u u u i j p.D.D.D.C.q       X w.D.8       ",
"2 2 2 A F.F.2.2 2 2 2 ^ F.F.F.F.Z.E l l l l l l k f u u u u u u % % % % % % - 1 u u u u u u m c.D.D.D.D.Q         ] D.D.8       ",
"2 2 2 A F.F.F.( 2 2 2 2 ^ F.F.F.F.F.>.x l l l l l l l k h f f f - ; ; 1 y u u u u u u u a  .D.D.D.D.m.S . .     Q D.D.D.8       ",
"2 2 2 A F.F.F.F.J 2 2 2 2 H A.F.F.F.F.Z.W z l l l l l l l l l l u u u u u u u u u u u I c.D.D.D.D.b.C       . q m.D.D.D.8       ",
"2 2 2 A F.F.F.F.S.G 2 2 2 2 0 j.F.F.F.F.F.B.#.x l l l l l l l l u u u u u u u y a U d.D.D.D.D.D.w.$ .     . q C.D.D.D.D.8       ",
"2 2 2 A F.F.F.F.F.S.H 2 2 2 2 3 2.F.F.F.F.F.F.F.7.@.Y l l l l l u u u u u c I 4.C.D.D.D.D.D.C.] o         q m.D.D.D.D.D.8       ",
"2 2 2 A F.F.F.F.F.F.F.( 2 2 2 2 2 Z e.F.F.F.F.F.F.F.F.A.f.4.4.=.+. .=.5.n.D.D.D.D.D.D.D.D.9.6         . Q C.D.D.D.D.D.D.q       ",
"2 2 2 A F.F.F.F.F.F.F.F.2.3 2 2 2 2 2 F q.F.F.F.F.F.F.F.F.F.F.F.D.D.D.D.D.D.D.D.D.C.D.9.S           X ] D.D.D.D.D.D.D.D.8       ",
"2 2 2 A F.F.F.F.F.F.F.F.F.k.A 2 2 2 2 2 2 Z ..N.F.F.F.F.F.F.F.F.D.D.D.D.D.D.D.D.x._ 6             6 w.D.D.D.D.D.D.D.D.D.8       ",
"2 2 2 A F.F.F.F.F.F.F.F.F.F.F...5 2 2 2 2 2 2 2 Z ` 0.l.F.F.F.F.D.D.D.D.w.X.! 6 .             O ] C.D.D.D.D.C.m.D.D.D.D.8       ",
"2 2 2 5 S S S S S S S S S S S S w 2 2 2 2 2 2 2 2 2 2 2 2 7 w w 6 4 @ .                       $ q 8 8 q 8 q 8 q 8 q 8 q o       ",
"2 2 2 2 2 2 2 2 2 2 2 2 2 2 2 2 2 2 2 2 2 2 2 2 2 2 2 2 2 2 2 2                                                                 ",
"2 2 2 2 2 2 2 2 2 2 2 2 2 2 2 2 2 2 2 2 2 2 2 2 2 2 2 2 2 2 2 2                                                                 ",
"2 2 2 2 2 2 2 2 2 2 2 2 2 2 2 2 2 2 2 2 2 2 2 2 2 2 2 2 2 2 2 #                                                                 "
};
