/* XPM */
static char *result[] = {
/* columns rows colors chars-per-pixel */
"64 64 132 2 ",
"   c #00204C",
".  c #062651",
"X  c #052A5E",
"o  c #082E5F",
"O  c #09305F",
"+  c #052B60",
"@  c #1A3761",
"#  c #1D3A64",
"$  c #0D3C7E",
"%  c #223E65",
"&  c #223F75",
"*  c #254177",
"=  c #2F4A7E",
"-  c #334F74",
";  c #314C7F",
":  c #355276",
">  c #0E3E83",
",  c #134997",
"<  c #134998",
"1  c #224C84",
"2  c #324E80",
"3  c #3C5787",
"4  c #3C5887",
"5  c #2F6496",
"6  c #22629E",
"7  c #2F6698",
"8  c #1957B1",
"9  c #1A5AB6",
"0  c #1B5BBA",
"q  c #226FAD",
"w  c #2270AF",
"e  c #2271B0",
"r  c #536C8D",
"t  c #4D6692",
"y  c #5B729C",
"u  c #677F9D",
"i  c #647BA2",
"p  c #1F64CB",
"a  c #2065CB",
"s  c #2572E2",
"d  c #2A7CF5",
"f  c #2B7EFB",
"g  c #6A819F",
"h  c #6A81A5",
"j  c #768CA9",
"k  c #788DAE",
"l  c #7A90AC",
"z  c #778DB0",
"x  c #7F94B3",
"c  c #1C89CC",
"v  c #2283C6",
"b  c #2285C8",
"n  c #2288CC",
"m  c #228CD0",
"M  c #2290D6",
"N  c #2292D8",
"B  c #2C80FD",
"V  c #3384FD",
"C  c #3C8AFD",
"Z  c #22A0E7",
"A  c #22A1E8",
"S  c #22ACF6",
"D  c #22AFFA",
"F  c #22B2FD",
"G  c #2BB6FD",
"H  c #33B8FD",
"J  c #3FBCFD",
"K  c #408DFD",
"L  c #4A93FC",
"P  c #5D9EFC",
"I  c #4EBEE7",
"U  c #4EBFE8",
"Y  c #44BDFD",
"T  c #49BFFD",
"R  c #65A3FC",
"E  c #6AA6FC",
"W  c #6EA8FC",
"Q  c #71A9FC",
"!  c #7AAFFB",
"~  c #7BB0FB",
"^  c #4EC1FD",
"/  c #55C4FE",
"(  c #57D9FF",
")  c #5EDBFF",
"_  c #65C9FE",
"`  c #6BCBFE",
"'  c #78CFFE",
"]  c #79D0FE",
"[  c #8298B2",
"{  c #95A9C2",
"}  c #9AADC6",
"|  c #9DB0C8",
" . c #A5B6CF",
".. c #8FBCFC",
"X. c #92BEFC",
"o. c #B1C1D7",
"O. c #B4C4D9",
"+. c #B7C9DD",
"@. c #95C0FB",
"#. c #82D3FE",
"$. c #9AD7FB",
"%. c #97DAFE",
"&. c #9ADBFE",
"*. c #A6CAFB",
"=. c #ADCFFB",
"-. c #AFD0FB",
";. c #A7DFFE",
":. c #BED9FB",
">. c #91E4FF",
",. c #AFE2FE",
"<. c #ADEAFF",
"1. c #B2E3FE",
"2. c #BDE2FB",
"3. c #C1D1E4",
"4. c #CADAEC",
"5. c #C2DBFB",
"6. c #C8DFFA",
"7. c #CCE1FA",
"8. c #CEECFF",
"9. c #D7E5F5",
"0. c #D8E7F7",
"q. c #DCEAF6",
"w. c #D7E7F8",
"e. c #D8E7F8",
"r. c #D4EBFC",
"t. c #D8E8F9",
"y. c #DEF3FF",
"u. c #E0EBF7",
"i. c #E4EFFA",
"p. c #E4F2FE",
"a. c #EBF6FF",
"s. c None",
/* pixels */
"s.F F F F F F F F F F D & & & & & & & & & & & & & & & & & & & &                                         f f B B B B B B B B B s.",
"F F F F F F F F F F F A & & & & & & & & & & & & & & & & & & & &                                         s B B B B B B B B B B B ",
"F F F F F F F F F F F M & & & & & & & & & & & & & & & & & & & &                                         a f B B B B B B B B B B ",
"F F F F F F F F F F F q & & & & & & & & & & & & & & & & & & & &                                         < B B B B B B B B B B B ",
"F F F F F F F F F F D 1 & & & & & & & & & & & & & & & & & & & &                                         + f B B B B B B B B B B ",
"F F F F F F F F F F v & & & & & & & & & & & & & & & & & & & & &                                           0 B f B B B B B B B B ",
"F F F F F F F F F S 1 & & & & & & & & & & & & & & & & & & & & &                                           X d f B B B B B B B B ",
"F F F F F F F F F 6 & & & & & & & & & & & & & & & & & & & t i z { l r .                                     $ f B B B B B B B B ",
"F F F F F F F F q & & & & & & & & & & & & & & & & * t  .q.a.a.a.t.t.w.0.3.r                                   , f B B B B B B B ",
"F F F F F F S 6 & & & & & & & & & & & & & & & & 4 O.a.a.a.a.a.a.t.t.w.w.w.w.4.:                                 > d B f B B B B ",
"F F F F D n 1 & & & & & & & & & & & & & & & & u q.a.a.a.a.a.a.a.w.w.w.w.w.w.w.w.l                                 X 8 f B f B B ",
"F A m q 1 & & & & & & & & & & & & & & & & & h p.a.a.a.a.y.,.] _ ..*.6.w.w.w.w.w.t.[                                   X , a s f ",
"& & & & & & & & & & & & & & & & & & & & & y a.a.a.a.y.#.F F F F f f B C =.w.w.w.t.t.u                                           ",
"& & & & & & & & & & & & & & & & & & & & = 9.a.a.a.8.Y F F F F F B B B B f P r.w.t.t.0.#                                         ",
"& & & & & & & & & & & & & & & & & & & * } a.a.a.r.H F F F F F F B B B B B B L w.0.w.w.+.                                        ",
"& & & & & & & & & & & & & & & & & & & = p.a.a.p.^ F F F F F F F B B B B B B B E w.w.w.w.%                                       ",
"& & & & & & & & & & & & & & & & & & & [ a.a.a.&.F F F F F F F F B B B B B B B B 5.w.w.w.|                                       ",
"& & & & & & & & & & & & & & & & & & & o.a.a.a.Y F F F F F F F F B B B B B B B B R w.w.w.4.                                      ",
"& & & & & & & & & & & & & & & & & * = u.a.a.r.F F F F F F F F F B B B B B B B B B t.w.w.w..                                     ",
"& & & & & & & & & & & & & & & 2 [  .u.a.a.a.,.F F F F F F F F F B B B B B B B B B 7.w.w.w.w.4.| %                               ",
"& & & & & & & & & & & & & = } y.a.a.a.a.a.a.&.F F F F F F F F F B B B B B B B B B :.w.w.w.w.w.w.t.+.@                           ",
"& & & & & & & & & & & & y 9.a.a.a.a.a.a.a.a._ F F F F F F F F F B B B B B B B B B X.w.w.w.w.w.w.w.w.0.g                         ",
"& & & & & & & & & & * i p.a.a.a.a.a.8.,.&._ F F F F F F F G / ` @.~ K B B B B B B B X.:.7.w.w.w.w.w.w.t.[                       ",
"& & & & & & & & & & u a.a.a.a.a.&.Y F F F F F F F F F ^ ,.a.a.a.t.t.t.7.Q B B B B B B B B f R 6.w.w.w.w.t.j                     ",
"& & & & & & & & & 4 q.a.a.a.r.^ F F F F F F F F F G &.a.a.a.a.a.w.w.w.w.w.:.V B B B B B B B B B E w.w.w.w.0.:                   ",
"& & & & & & & & & o.a.a.a.8.H F F F F F F F F F F 1.a.a.a.a.a.a.w.w.w.w.w.w.7.V B B B B B B B B B L w.w.w.w.4.                  ",
"& & & & & & & & t a.a.a.y.J F F F F F F F F F F &.a.a.a.a.y.<.>.$.2.t.w.w.w.t.:.B B B B B B B B B B P t.w.w.w.r                 ",
"& & & & & & & &  .a.a.a.#.F F F F F F F F F F ^ a.a.a.a.<.( ( ( F F H 2.w.w.w.0.Q B B B B B B B B B f =.w.w.w.3.                ",
"& & & & & & & * q.a.a.y.F F F F F F F F F F F 1.a.a.a.<.( ( ( ( F F F F 2.t.0.w.7.B B B B B B B B B B C w.w.w.w..               ",
"& & & & & & * t a.a.a.,.F F F F F F F F F F G a.a.a.y.) ( ( ( ( F F F F H t.w.w.t.C B B B B B B B B B f 6.w.w.w.r               ",
"& & & & & & & i a.a.a.] F F F F F F F F F F / a.a.a.<.( ( ( U 5 X c F F F 2.w.w.w.~ B B B B B B B B B B *.w.w.0.l               ",
"& & & & & & & z a.a.a._ F F F F F F F F F F ` a.a.a.>.( ( ( 5 &   O F F F $.w.w.t.X.B B B B B B B B B B ..w.w.0.{               ",
"& & & & & & & k a.a.a._ F F F F F F F F F F ` a.a.a.>.( ( ( 5 *   o F F F $.t.w.w.@.B B B B B B B B B B ..w.w.w.{               ",
"& & & & & & & i a.a.a.' F F F F F F F F F F / a.a.a.<.( ( ( ^ 5 O c F F F 2.w.w.w.~ B B B B B B B B B B *.w.w.w.l               ",
"& & & & & & & t a.a.a.;.F F F F F F F F F F G p.a.a.q.) ( ( ( ( F F F F H t.w.w.w.C B B B B B B B B B B 7.w.t.t.r               ",
"& & & & & & & * q.a.a.y.G F F F F F F F F F F ,.a.a.a.<.( ( ( ( F F F F 2.w.w.w.7.B B B B B B B B B B C w.t.0.t.                ",
"& & & & & & & &  .a.a.a.#.F F F F F F F F F F ^ a.a.a.a.<.) ( ( F F H 2.t.w.w.w.W B B B B B B B B B B -.w.w.0.+.                ",
"& & & & & & & & t a.a.a.y.J F F F F F F F F F F >.a.a.a.a.y.<.>.$.2.t.w.0.w.w.:.B B B B B B B B B B P w.w.w.0.r                 ",
"& & & & & & & & & O.a.a.a.8.H F F F F F F F F F G 1.a.a.a.a.a.a.w.w.w.w.w.w.7.V B B B B B B B B B L t.w.w.w.4.                  ",
"& & & & & & & & & 4 q.a.a.a.r.T F F F F F F F F F G $.a.a.a.a.a.w.w.w.0.w.:.V B B B B B B B B B W w.w.w.w.0.:                   ",
"& & & & & & & & & & u a.a.a.a.a.&.^ F F F F F F F F F ^ ,.a.a.a.w.w.t.7.W B B B B B B B B B E 5.w.w.w.w.w.l                     ",
"& & & & & & & & & & & i p.a.a.a.a.a.r.,.%._ F F F F F F F G / ` @.! C B B B B B B B @.5.7.w.w.w.w.w.w.w.l                       ",
"& & & & & & & & & & & & y 9.a.a.a.a.a.a.a.a._ F F F F F F F F F B B B B B B B B B X.0.w.w.w.w.w.w.w.w.g                         ",
"& & & & & & & & & & & & & = { i.a.a.a.a.a.a.&.F F F F F F F F F B B B B B B B B B :.w.w.w.w.w.w.0.O.#                           ",
"& & & & & & & & & & & & & & * = x o.u.a.a.a.<.F F F F F F F F F B B B B B B B B B 7.w.w.w.w.4.| #                               ",
"& & & & & & & & & & & & & & & & * * * u.a.a.r.F F F F F F F F F B B B B B B B B B t.w.w.w..                                     ",
"& & & & & & & & & & & & & & & & & & & o.a.a.a.Y F F F F F F F F B B B B B B B B R w.w.w.4.                                      ",
"& & & & & & & & & & & & & & & & & & * x a.a.a.&.F F F F F F F F B B B B B B B B 5.t.w.w.}                                       ",
"& & & & & & & & & & & & & & & & & & & 2 i.a.a.a.T F F F F F F F B B B B B B f W w.w.w.w.#                                       ",
"& & & & & & & & & & & & & & & & & & & & } a.a.a.r.H F F F F F F B B B B B B L w.w.w.w.+.                                        ",
"& & & & & & & & & & & & & & & & & & & & = 9.a.a.a.8.Y F F F F F B B B B B P w.w.w.w.0.#                                         ",
"& & & & & & & & & & & & & & & & & & & & & y i.a.a.a.y.#.G F F F B B B C -.w.w.w.w.w.g                                           ",
"D A N q 1 & & & & & & & & & & & & & & & & & i a.a.a.a.a.p.;.] _ ..*.6.w.w.w.w.w.w.l                                   X < a s f ",
"F F F F F m 1 & & & & & & & & & & & & & & & & i q.a.a.a.a.a.a.a.w.w.w.w.w.w.w.0.j                                 X 9 B B B B B ",
"F F F F F F S 6 & & & & & & & & & & & & & & & & 3 o.a.a.a.a.a.a.w.w.w.w.0.w.4.:                                 , d B B B B B B ",
"F F F F F F F F e & & & & & & & & & & & & & & & & & t  .0.a.a.a.w.w.w.w.3.r                                   < d d B B B B B B ",
"F F F F F F F F F q & & & & & & & & & & & & & & & & & & & t i k { l r .                                     > B B B B B B B B B ",
"F F F F F F F F S S 1 & & & & & & & & & & & & & & & & & & & & &                                           X d B B B B B B B B B ",
"F F F F F F F F D F b & & & & & & & & & & & & & & & & & & & & &                                           0 B B B B B B B B B B ",
"F F F F F F F F F F F 1 & & & & & & & & & & & & & & & & & & & &                                         + f B B B B B B B B B B ",
"F F F F F F F F F F F e & & & & & & & & & & & & & & & & & & & &                                         , B B B B B B B B B B B ",
"F F F F F F F F F F F m & & & & & & & & & & & & & & & & & & & &                                         a B B B B B B B B B B B ",
"F F F F F F F F F F F Z & & & & & & & & & & & & & & & & & & & &                                         s B B B B B B B B B B B ",
"s.F F F F F F F F F F D & & & & & & & & & & & & & & & & & & & &                                         d B B B B B B B B B B s."
};
