/* XPM */
static char *result[] = {
/* columns rows colors chars-per-pixel */
"64 64 136 2 ",
"   c #1F3399",
".  c #23369B",
"X  c #23379B",
"o  c #25399C",
"O  c #283B9C",
"+  c #293C9D",
"@  c #2B3E9E",
"#  c #2B3F9E",
"$  c #384BA4",
"%  c #4356AA",
"&  c #485AAB",
"*  c #495BAC",
"=  c #4A5CAC",
"-  c #4C5EAD",
";  c #4D5FAE",
":  c #4E5FAE",
">  c #4F61AF",
",  c #5162B0",
"<  c #5263B0",
"1  c #5465B1",
"2  c #5566B1",
"3  c #5567B1",
"4  c #5F70B6",
"5  c #6070B6",
"6  c #6272B7",
"7  c #6A7BBB",
"8  c #6C7CBC",
"9  c #2944CC",
"0  c #2C47CD",
"q  c #2D48CD",
"w  c #304ACE",
"e  c #324CCE",
"r  c #334DCE",
"t  c #364ECE",
"y  c #364FCE",
"u  c #2E6BE6",
"i  c #445AD1",
"p  c #5064D3",
"a  c #5568D4",
"s  c #566AD5",
"d  c #576AD5",
"f  c #556CD5",
"g  c #5B6DD6",
"h  c #5B6ED6",
"j  c #5C6FD6",
"k  c #5F70D6",
"l  c #6071D6",
"z  c #6172D6",
"x  c #6374D7",
"c  c #6474D7",
"v  c #6E7DD9",
"b  c #6F7EDA",
"n  c #6F7FDA",
"m  c #707FDA",
"M  c #7686C0",
"N  c #7C89DC",
"B  c #7D89DC",
"V  c #7E8ADC",
"C  c #5986E7",
"Z  c #638EE9",
"A  c #8291C5",
"S  c #8392C6",
"D  c #8594C6",
"F  c #8795C7",
"G  c #8792DE",
"H  c #96A4CE",
"J  c #9BA9D1",
"K  c #A8B5D6",
"L  c #A9B6D6",
"P  c #A9B7D7",
"I  c #B1BEDA",
"U  c #949CE0",
"Y  c #949DE1",
"T  c #959EE1",
"R  c #969EE1",
"E  c #99A1E2",
"W  c #A9AEE5",
"Q  c #AEB3E6",
"!  c #BDBEE8",
"~  c #BEBFE8",
"^  c #B4C1DB",
"/  c #BBC7DF",
"(  c #BCC8DF",
")  c #BEC0E9",
"_  c #C1CDE1",
"`  c #C2CDE1",
"'  c #C9C9EB",
"]  c #CFCDEC",
"[  c #D0CEEC",
"{  c #D1CFEC",
"}  c #C5D0E3",
"|  c #C4D1E3",
" . c #C6D1E4",
".. c #C8D3E4",
"X. c #CBD7E6",
"o. c #CCD8E7",
"O. c #CDD8E7",
"+. c #D7D4ED",
"@. c #D8D5EE",
"#. c #D3DEE9",
"$. c #D4DFEA",
"%. c #D5DFEA",
"&. c #DCD8EF",
"*. c #DDD9EF",
"=. c #DDDAEF",
"-. c #E2DDEF",
";. c #E3DEEF",
":. c #E4DEF0",
">. c #E4DFF0",
",. c #E5DFF0",
"<. c #D6E0EB",
"1. c #D6E1EB",
"2. c #D9E3EC",
"3. c #DDE8EF",
"4. c #DCE7F0",
"5. c #DDE8F1",
"6. c #E0EAEF",
"7. c #E1EAEF",
"8. c #ECE5F1",
"9. c #EDE6F2",
"0. c #EDE7F2",
"q. c #EEE7F2",
"w. c #E2EBF0",
"e. c #E4EEF1",
"r. c #E5EFF2",
"t. c #EFE8F2",
"y. c #F2EAF3",
"u. c #F6EDF3",
"i. c #F2EDF4",
"p. c #F7EFF4",
"a. c #E6F0F2",
"s. c #F9F0F4",
"d. c #FAF1F4",
"f. c #FDF4F5",
"g. c #FEF4F5",
"h. c #FFF5F5",
/* pixels */
"h.h.h.h.h.h.h.h.h.h.h.h.h.h.h.h.h.h.h.h.h.h.h.h.h.h.h.h.h.h.h.h.a.a.a.a.a.a.a.a.a.a.a.a.a.a.a.a.a.a.a.a.a.a.a.a.a.a.a.a.a.a.a.a.",
"h.h.h.h.h.h.h.h.h.h.h.h.h.h.h.h.h.h.h.h.h.h.h.h.h.h.h.h.h.h.h.h.a.a.a.a.a.a.a.a.a.a.a.a.a.a.a.a.a.a.a.a.a.a.a.a.a.a.a.a.a.a.a.a.",
"h.h.h.h.h.h.h.h.h.h.h.h.h.h.h.h.h.h.h.h.h.h.h.h.h.h.h.h.h.h.h.h.a.a.a.a.a.a.a.a.a.a.a.a.a.a.a.a.a.a.a.a.a.a.a.a.a.a.a.a.a.a.a.a.",
"h.h.h.y.' ' ' ' ' ' ' ' ' ' ' ' ' ' ' ' ' ' ' ' ' ' ' ' ' ' ' ' I I I I I I I I I I I I I I I I I I I I I I I I I I I I 2.a.a.a.",
"h.h.h.' 9 9 9 9 9 9 9 9 9 9 9 9 9 9 9 9 9 9 9 9 9 9 9 9 9 9 9 9                                                         ^ a.a.a.",
"h.h.h.' 9 9 9 9 9 9 9 9 9 9 9 9 9 9 9 9 9 9 9 9 9 9 9 9 9 9 9 9                                                         ^ a.a.a.",
"h.h.h.' 9 9 9 9 9 9 9 9 9 9 9 9 9 9 9 9 9 9 9 9 9 9 9 9 9 9 9 9                                                         ^ a.a.a.",
"h.h.h.' 9 9 9 k Y Y Y Y Y Y Y Y Y Y Y Y Y Y Y Y Y Y Y Y Y Y y 9   # A A A A A A A A A A A A A A A A A A A A A A ,       ^ a.a.a.",
"h.h.h.' 9 9 9 Y h.h.h.h.h.h.h.h.h.h.h.h.h.h.h.h.h.h.h.h.h.h.i 9   $ a.a.a.a.a.a.a.a.a.a.a.a.a.a.a.a.a.a.a.a.a.a.A       ^ a.a.a.",
"h.h.h.' 9 9 9 Y h.h.h.h.h.h.h.h.h.h.h.h.h.h.h.h.h.h.h.h.h.h.i 9   $ a.a.a.a.a.a.a.a.a.a.a.a.a.a.a.a.a.a.a.a.a.a.A       ^ a.a.a.",
"h.h.h.' 9 9 9 Y h.h.h.h.h.h.h.h.h.h.h.h.h.h.h.h.h.h.h.h.h.h.i 9   $ a.a.a.a.a.a.a.a.a.a.a.a.a.a.a.a.a.a.a.a.a.a.A       ^ a.a.a.",
"h.h.h.' 9 9 9 Y h.h.h.G k k k k k k k k k k k k k k k k k k w 9   o , , , , , , , , , , , , , , , , , , M a.a.a.A       ^ a.a.a.",
"h.h.h.' 9 9 9 Y h.h.h.k 9 9 9 9 9 9 9 9 9 9 9 9 9 9 9 9 9 9 9 9                                         , a.a.a.A       ^ a.a.a.",
"h.h.h.' 9 9 9 Y h.h.h.k 9 9 9 9 9 9 9 9 9 9 9 9 9 9 9 9 9 9 9 9                                         , a.a.a.A       ^ a.a.a.",
"h.h.h.' 9 9 9 Y h.h.h.k 9 9 9 9 9 9 9 9 9 9 9 9 9 9 9 9 9 9 9 9                                         , a.a.a.A       ^ a.a.a.",
"h.h.h.' 9 9 9 Y h.h.h.k 9 9 9 9 9 9 9 9 9 9 9 9 9 l ) q.d.=.T t # S ..w.1.P <                           , a.a.a.A       ^ a.a.a.",
"h.h.h.' 9 9 9 Y h.h.h.k 9 9 9 9 9 9 9 9 9 9 9 9 E h.h.h.h.h.h.,.O.a.a.a.a.a.a.F                         , a.a.a.A       ^ a.a.a.",
"h.h.h.' 9 9 9 Y h.h.h.k 9 9 9 9 9 9 9 9 9 9 9 V h.h.h.h.h.h.h.h.a.a.a.a.a.a.a.a.8                       , a.a.a.A       ^ a.a.a.",
"h.h.h.' 9 9 9 Y h.h.h.k 9 9 9 9 9 9 9 9 9 9 q 9.h.h.h.0.+.g.h.h.a.a.e._ <.a.a.a.$..                     , a.a.a.A       ^ a.a.a.",
"h.h.h.' 9 9 9 Y h.h.h.k 9 9 9 9 9 9 9 9 9 9 j h.h.h.] e 9 n h.h.a.a.4   O / a.a.a.;                     , a.a.a.A       ^ a.a.a.",
"h.h.h.' 9 9 9 Y h.h.h.k 9 9 9 9 9 9 9 9 9 9 a W W W z 9 9 9 9.h.a.%.      1 H H H &                     , a.a.a.A       ^ a.a.a.",
"h.h.h.' 9 9 9 Y h.h.h.k 9 9 9 9 9 9 9 9 9 9 9 9 9 9 9 9 9 9 >.h.a.O.                                    , a.a.a.A       ^ a.a.a.",
"h.h.h.' 9 9 9 Y h.h.h.k 9 9 9 9 9 9 q h d 9 9 9 9 9 9 9 9 9 >.h.a.O.                  = : X             , a.a.a.A       ^ a.a.a.",
"h.h.h.' 9 9 9 Y h.h.h.k 9 9 9 9 9 V 0.h.Q 9 9 9 9 9 9 9 9 p u.h.a.3.%                 J a.%.8           , a.a.a.A       ^ a.a.a.",
"h.h.h.' 9 9 9 Y h.h.h.k 9 9 9 9 E h.h.h.Q 9 9 9 9 9 9 9 p q.h.h.a.a.1.%               J a.a.a.F         , a.a.a.A       ^ a.a.a.",
"h.h.h.' 9 9 9 Y h.h.h.k 9 9 9 l h.h.h.h.Q 9 9 9 9 9 9 p q.h.h.h.a.a.a.1.%             J a.a.a.a.,       , a.a.a.A       ^ a.a.a.",
"h.h.h.' 9 9 9 Y h.h.h.k 9 9 9 ) h.h.h.[ x 9 9 9 9 9 p q.h.h.h.i.5.a.a.a.1.%           2 / a.a.a.L       , a.a.a.A       ^ a.a.a.",
"h.h.h.' 9 9 9 Y h.h.h.k 9 9 9 t.h.h.0.e 9 9 9 9 9 p q.h.h.h.p.C f 4.a.a.a.1.%           + 1.a.a.<.      , a.a.a.A       ^ a.a.a.",
"h.h.h.' 9 9 9 Y h.h.h.k 9 9 9 s.h.h.+.9 9 9 9 9 p q.h.h.h.p.Z u 9 f 4.a.a.a.1.%           ` a.a.6.      , a.a.a.A       ^ a.a.a.",
"h.h.h.' 9 9 9 Y h.h.h.k 9 9 9 *.h.h.f.b 9 9 9 p q.h.h.h.p.Z u u 9 9 f 4.a.a.a.1.%       6 r.a.a.|       , a.a.a.A       ^ a.a.a.",
"h.h.h.' 9 9 9 y i i i w 9 9 9 T h.h.h.h.9.-.-.u.h.h.h.p.Z u u u 9 9 9 f 4.a.a.a.3.X.X.%.a.a.a.a.S       o $ $ $ #       ^ a.a.a.",
"h.h.h.' 9 9 9 9 9 9 9 9 9 9 9 t ;.h.h.h.h.h.h.h.h.h.p.Z u u u u 9 9 9 9 f 4.a.a.a.a.a.a.a.a.a.o.@                       ^ a.a.a.",
"h.h.h.' 9 9 9 9 9 9 9 9 9 9 9 y >.h.h.h.h.h.h.h.h.h.p.Z u u u u 9 9 9 9 f 4.a.a.a.a.a.a.a.a.a.o.@                       ^ a.a.a.",
"h.h.h.' 9 9 9 y i i i w 9 9 9 R h.h.h.h.8.-.-.u.h.h.h.p.Z u u u 9 9 9 f 4.a.a.a.3.X.X.$.a.a.a.a.A       o $ $ $ #       ^ a.a.a.",
"h.h.h.' 9 9 9 Y h.h.h.k 9 9 9 =.h.h.f.v 9 9 9 p q.h.h.h.p.Z u u 9 9 f 4.a.a.a.1.%       5 r.a.a.}       , a.a.a.A       ^ a.a.a.",
"h.h.h.' 9 9 9 Y h.h.h.k 9 9 9 s.h.h.+.9 9 9 9 9 p q.h.h.h.p.Z u 9 f 4.a.a.a.1.%           ` a.a.6.      , a.a.a.A       ^ a.a.a.",
"h.h.h.' 9 9 9 Y h.h.h.k 9 9 9 q.h.h.0.e 9 9 9 9 9 p q.h.h.h.p.C f 4.a.a.a.1.%           + 1.a.a.<.      , a.a.a.A       ^ a.a.a.",
"h.h.h.' 9 9 9 Y h.h.h.k 9 9 9 ~ h.h.h.{ c 9 9 9 9 9 p q.h.h.h.i.5.a.a.a.1.%           3 ( a.a.a.K       , a.a.a.A       ^ a.a.a.",
"h.h.h.' 9 9 9 Y h.h.h.k 9 9 9 l h.h.h.h.Q 9 9 9 9 9 9 p q.h.h.h.a.a.a.1.%             J a.a.a.r.>       , a.a.a.A       ^ a.a.a.",
"h.h.h.' 9 9 9 Y h.h.h.k 9 9 9 9 E h.h.h.Q 9 9 9 9 9 9 9 p q.h.h.a.a.1.%               J a.a.a.D         , a.a.a.A       ^ a.a.a.",
"h.h.h.' 9 9 9 Y h.h.h.k 9 9 9 9 9 N 8.h.Q 9 9 9 9 9 9 9 9 p u.h.a.3.%                 J a.#.7           , a.a.a.A       ^ a.a.a.",
"h.h.h.' 9 9 9 Y h.h.h.k 9 9 9 9 9 9 0 g s 9 9 9 9 9 9 9 9 9 >.h.a.O.                  * - .             , a.a.a.A       ^ a.a.a.",
"h.h.h.' 9 9 9 Y h.h.h.k 9 9 9 9 9 9 9 9 9 9 9 9 9 9 9 9 9 9 >.h.a.O.                                    , a.a.a.A       ^ a.a.a.",
"h.h.h.' 9 9 9 Y h.h.h.k 9 9 9 9 9 9 9 9 9 9 a W W W z 9 9 9 0.h.a.%.      1 H H H &                     , a.a.a.A       ^ a.a.a.",
"h.h.h.' 9 9 9 Y h.h.h.k 9 9 9 9 9 9 9 9 9 9 h h.h.h.[ r 9 m h.h.a.a.5   + / a.a.a.;                     , a.a.a.A       ^ a.a.a.",
"h.h.h.' 9 9 9 Y h.h.h.k 9 9 9 9 9 9 9 9 9 9 q 9.h.h.h.0.@.g.h.h.a.a.r.` 1.a.a.a.#..                     , a.a.a.A       ^ a.a.a.",
"h.h.h.' 9 9 9 Y h.h.h.k 9 9 9 9 9 9 9 9 9 9 9 B h.h.h.h.h.h.h.h.a.a.a.a.a.a.a.a.7                       , a.a.a.A       ^ a.a.a.",
"h.h.h.' 9 9 9 Y h.h.h.k 9 9 9 9 9 9 9 9 9 9 9 9 E h.h.h.h.h.h.:.o.a.a.a.a.a.r.D                         , a.a.a.A       ^ a.a.a.",
"h.h.h.' 9 9 9 Y h.h.h.k 9 9 9 9 9 9 9 9 9 9 9 9 9 k ! 0.s.&.U t @ S  .7.<.K >                           , a.a.a.A       ^ a.a.a.",
"h.h.h.' 9 9 9 Y h.h.h.k 9 9 9 9 9 9 9 9 9 9 9 9 9 9 9 9 9 9 9 9                                         , a.a.a.A       ^ a.a.a.",
"h.h.h.' 9 9 9 Y h.h.h.k 9 9 9 9 9 9 9 9 9 9 9 9 9 9 9 9 9 9 9 9                                         , a.a.a.A       ^ a.a.a.",
"h.h.h.' 9 9 9 Y h.h.h.k 9 9 9 9 9 9 9 9 9 9 9 9 9 9 9 9 9 9 9 9                                         , a.a.a.A       ^ a.a.a.",
"h.h.h.' 9 9 9 Y h.h.h.G k k k k k k k k k k k k k k k k k k w 9   o , , , , , , , , , , , , , , , , , , M a.a.a.A       ^ a.a.a.",
"h.h.h.' 9 9 9 Y h.h.h.h.h.h.h.h.h.h.h.h.h.h.h.h.h.h.h.h.h.h.i 9   $ a.a.a.a.a.a.a.a.a.a.a.a.a.a.a.a.a.a.a.a.a.a.A       ^ a.a.a.",
"h.h.h.' 9 9 9 Y h.h.h.h.h.h.h.h.h.h.h.h.h.h.h.h.h.h.h.h.h.h.i 9   $ a.a.a.a.a.a.a.a.a.a.a.a.a.a.a.a.a.a.a.a.a.a.A       ^ a.a.a.",
"h.h.h.' 9 9 9 Y h.h.h.h.h.h.h.h.h.h.h.h.h.h.h.h.h.h.h.h.h.h.i 9   $ a.a.a.a.a.a.a.a.a.a.a.a.a.a.a.a.a.a.a.a.a.a.A       ^ a.a.a.",
"h.h.h.' 9 9 9 k Y Y Y Y Y Y Y Y Y Y Y Y Y Y Y Y Y Y Y Y Y Y y 9   # A A A A A A A A A A A A A A A A A A A A A A ,       ^ a.a.a.",
"h.h.h.' 9 9 9 9 9 9 9 9 9 9 9 9 9 9 9 9 9 9 9 9 9 9 9 9 9 9 9 9                                                         ^ a.a.a.",
"h.h.h.' 9 9 9 9 9 9 9 9 9 9 9 9 9 9 9 9 9 9 9 9 9 9 9 9 9 9 9 9                                                         ^ a.a.a.",
"h.h.h.' 9 9 9 9 9 9 9 9 9 9 9 9 9 9 9 9 9 9 9 9 9 9 9 9 9 9 9 9                                                         ^ a.a.a.",
"h.h.h.y.' ' ' ' ' ' ' ' ' ' ' ' ' ' ' ' ' ' ' ' ' ' ' ' ' ' ' ' I I I I I I I I I I I I I I I I I I I I I I I I I I I I 2.a.a.a.",
"h.h.h.h.h.h.h.h.h.h.h.h.h.h.h.h.h.h.h.h.h.h.h.h.h.h.h.h.h.h.h.h.a.a.a.a.a.a.a.a.a.a.a.a.a.a.a.a.a.a.a.a.a.a.a.a.a.a.a.a.a.a.a.a.",
"h.h.h.h.h.h.h.h.h.h.h.h.h.h.h.h.h.h.h.h.h.h.h.h.h.h.h.h.h.h.h.h.a.a.a.a.a.a.a.a.a.a.a.a.a.a.a.a.a.a.a.a.a.a.a.a.a.a.a.a.a.a.a.a.",
"h.h.h.h.h.h.h.h.h.h.h.h.h.h.h.h.h.h.h.h.h.h.h.h.h.h.h.h.h.h.h.h.a.a.a.a.a.a.a.a.a.a.a.a.a.a.a.a.a.a.a.a.a.a.a.a.a.a.a.a.a.a.a.a."
};
